<svg width="19" height="18" viewBox="0 0 19 18" fill="none" xmlns="http://www.w3.org/2000/svg">
<path opacity="0.8" d="M18.05 6.63158H4.75V3.78947C4.75 2.74453 5.60215 1.89474 6.65 1.89474C7.69785 1.89474 8.55 2.74453 8.55 3.78947H10.45C10.45 1.69958 8.7457 0 6.65 0C4.5543 0 2.85 1.69958 2.85 3.78947V6.63158H0.95C0.698044 6.63158 0.456408 6.73139 0.278249 6.90906C0.100089 7.08672 0 7.32769 0 7.57895V9.47368C0 11.9425 1.5903 14.0428 3.8 14.8263V18H5.7V15.1579H13.3V18H15.2V14.8263C17.4097 14.0428 19 11.9425 19 9.47368V7.57895C19 7.32769 18.8999 7.08672 18.7218 6.90906C18.5436 6.73139 18.302 6.63158 18.05 6.63158ZM17.1 9.47368C17.1 11.5636 15.3957 13.2632 13.3 13.2632H5.7C3.6043 13.2632 1.9 11.5636 1.9 9.47368V8.52632H17.1V9.47368Z" fill="#1E1E1E" fill-opacity="0.8"/>
</svg>
