<svg width="22" height="20" viewBox="0 0 22 20" fill="none" xmlns="http://www.w3.org/2000/svg">
<path d="M17.4167 4.49992H11.9167C11.0796 4.50299 10.2594 4.73584 9.54558 5.17309C8.83177 5.61034 8.25171 6.23519 7.86867 6.9795C7.31903 6.56223 6.64842 6.33536 5.95833 6.33325C5.10743 6.33325 4.29138 6.67127 3.6897 7.27295C3.08802 7.87463 2.75 8.69068 2.75 9.54159C2.75268 10.0183 2.86265 10.4882 3.07175 10.9166H1.83333V1.74992C1.83333 1.5068 1.73676 1.27365 1.56485 1.10174C1.39294 0.929829 1.15978 0.833252 0.916667 0.833252C0.673552 0.833252 0.440394 0.929829 0.268485 1.10174C0.0965771 1.27365 0 1.5068 0 1.74992L0 18.2499C0 18.493 0.0965771 18.7262 0.268485 18.8981C0.440394 19.07 0.673552 19.1666 0.916667 19.1666C1.15978 19.1666 1.39294 19.07 1.56485 18.8981C1.73676 18.7262 1.83333 18.493 1.83333 18.2499V16.4166H20.1667V18.2499C20.1667 18.493 20.2632 18.7262 20.4352 18.8981C20.6071 19.07 20.8402 19.1666 21.0833 19.1666C21.3264 19.1666 21.5596 19.07 21.7315 18.8981C21.9034 18.7262 22 18.493 22 18.2499V9.08325C21.9985 7.86812 21.5152 6.70318 20.656 5.84395C19.7967 4.98473 18.6318 4.50137 17.4167 4.49992ZM9.16667 9.08325C9.16667 8.35391 9.4564 7.65443 9.97212 7.13871C10.4878 6.62298 11.1873 6.33325 11.9167 6.33325H17.4167C18.146 6.33325 18.8455 6.62298 19.3612 7.13871C19.8769 7.65443 20.1667 8.35391 20.1667 9.08325V10.9166H9.16667V9.08325ZM4.58333 9.54159C4.58333 9.26964 4.66398 9.0038 4.81506 8.77768C4.96615 8.55156 5.1809 8.37532 5.43214 8.27125C5.68339 8.16718 5.95986 8.13995 6.22658 8.19301C6.49331 8.24606 6.73831 8.37702 6.93061 8.56931C7.1229 8.76161 7.25386 9.00661 7.30691 9.27334C7.35997 9.54006 7.33274 9.81653 7.22867 10.0678C7.1246 10.319 6.94836 10.5338 6.72224 10.6849C6.49613 10.8359 6.23028 10.9166 5.95833 10.9166C5.59366 10.9166 5.24392 10.7717 4.98606 10.5139C4.7282 10.256 4.58333 9.90626 4.58333 9.54159ZM1.83333 14.5833V12.7499H20.1667V14.5833H1.83333Z" fill="#1E1E1E" fill-opacity="0.8"/>
</svg>
