<svg width="30" height="30" viewBox="0 0 30 30" fill="none" xmlns="http://www.w3.org/2000/svg">
<path fill-rule="evenodd" clip-rule="evenodd" d="M0.43457 23.7412C0.43457 23.0509 0.994214 22.4912 1.68457 22.4912H12.4721C13.1625 22.4912 13.7221 23.0509 13.7221 23.7412C13.7221 24.4316 13.1625 24.9912 12.4721 24.9912H1.68457C0.994214 24.9912 0.43457 24.4316 0.43457 23.7412Z" fill="black"/>
<path fill-rule="evenodd" clip-rule="evenodd" d="M19.3505 19.3141C20.4301 18.2348 22.0081 17.9561 23.778 17.9561C25.5479 17.9561 27.1259 18.2348 28.2055 19.3141C29.2852 20.3935 29.5643 21.9715 29.5643 23.7424C29.5643 25.5132 29.2852 27.0912 28.2055 28.1706C27.1259 29.25 25.5479 29.5287 23.778 29.5287C22.0081 29.5287 20.4301 29.25 19.3505 28.1706C18.2708 27.0912 17.9917 25.5132 17.9917 23.7424C17.9917 21.9715 18.2708 20.3935 19.3505 19.3141ZM21.1181 21.0821C20.78 21.4201 20.4917 22.1102 20.4917 23.7424C20.4917 25.3745 20.78 26.0646 21.1181 26.4026C21.4562 26.7407 22.1464 27.0287 23.778 27.0287C25.4096 27.0287 26.0998 26.7407 26.438 26.4026C26.7761 26.0646 27.0643 25.3745 27.0643 23.7424C27.0643 22.1102 26.7761 21.4201 26.438 21.0821C26.0998 20.744 25.4096 20.4561 23.778 20.4561C22.1464 20.4561 21.4562 20.744 21.1181 21.0821Z" fill="black"/>
<path fill-rule="evenodd" clip-rule="evenodd" d="M16.2773 6.25977C16.2773 5.56941 16.837 5.00977 17.5273 5.00977H28.3134C29.0038 5.00977 29.5634 5.56941 29.5634 6.25977C29.5634 6.95012 29.0038 7.50977 28.3134 7.50977H17.5273C16.837 7.50977 16.2773 6.95012 16.2773 6.25977Z" fill="black"/>
<path fill-rule="evenodd" clip-rule="evenodd" d="M1.79359 1.82979C2.8733 0.750366 4.4515 0.471191 6.22238 0.471191C7.99262 0.471191 9.57048 0.750407 10.65 1.82991C11.7295 2.90941 12.0087 4.48726 12.0087 6.25751C12.0087 8.02833 11.7295 9.60639 10.6499 10.6858C9.57026 11.7651 7.99229 12.0438 6.22238 12.0438C4.45184 12.0438 2.87352 11.7651 1.7937 10.6859C0.713715 9.60648 0.43457 8.02832 0.43457 6.25751C0.43457 4.48727 0.71378 2.90931 1.79359 1.82979ZM3.56112 3.59779C3.22277 3.93605 2.93457 4.62625 2.93457 6.25751C2.93457 7.88968 3.22284 8.57968 3.56101 8.91767C3.89935 9.25583 4.58993 9.54382 6.22238 9.54382C7.85396 9.54382 8.54415 9.25588 8.88233 8.91778C9.22043 8.57977 9.50869 7.88967 9.50869 6.25751C9.50869 4.62626 9.2205 3.93596 8.88221 3.59767C8.54393 3.25939 7.85362 2.97119 6.22238 2.97119C4.59027 2.97119 3.89957 3.25943 3.56112 3.59779Z" fill="black"/>
</svg>
