<svg width="256" height="83" viewBox="0 0 256 83" fill="none" xmlns="http://www.w3.org/2000/svg">
<g clip-path="url(#clip0_1212_6372)">
<path d="M88.6601 16.7378C90.4983 16.7378 92.3365 16.7378 94.2304 16.7378C94.2304 18.8858 94.2304 21.0339 94.2304 23.247C96.0686 23.247 97.9067 23.247 99.8006 23.247C99.8006 21.099 99.8006 18.9509 99.8006 16.7378C101.639 16.7378 103.477 16.7378 105.371 16.7378C105.371 22.4915 105.371 28.2452 105.371 34.1732C103.533 34.1732 101.695 34.1732 99.8006 34.1732C99.8006 32.0252 99.8006 29.8771 99.8006 27.664C97.9625 27.664 96.1243 27.664 94.2304 27.664C94.2304 29.812 94.2304 31.9601 94.2304 34.1732C93.924 34.2499 93.6176 34.3267 93.302 34.4057C93.3786 34.5591 93.4552 34.7126 93.5341 34.8706C91.5861 35.1156 89.6327 35.2234 87.6737 35.3356C86.5309 35.4017 85.3882 35.4691 84.2457 35.54C83.7984 35.5673 83.351 35.5927 82.9035 35.618C82.6359 35.6351 82.3683 35.6522 82.0926 35.6698C81.8584 35.6838 81.6242 35.6979 81.3829 35.7124C80.7662 35.8009 80.3635 35.9308 79.8405 36.2655C79.5006 36.9465 79.5672 37.637 79.5595 38.3841C79.5535 38.7282 79.5474 39.0724 79.5411 39.4166C79.538 39.5972 79.535 39.7778 79.5318 39.9639C79.3877 47.7049 77.9735 54.7567 74.2703 61.605C74.1917 61.7509 74.113 61.8968 74.0321 62.0471C69.2382 70.8045 60.8245 77.7606 51.2764 80.651C50.5395 80.8604 49.8009 81.058 49.059 81.2489C48.8309 81.3083 48.6028 81.3677 48.3677 81.4289C46.9216 81.779 45.5841 81.9033 44.098 81.8301C43.4451 80.4594 43.556 79.0484 43.5606 77.5649C43.5613 77.0659 43.5558 76.5672 43.55 76.0682C43.5494 75.7489 43.5493 75.4295 43.5495 75.1102C43.5488 74.8217 43.5481 74.5333 43.5474 74.2361C43.6428 73.3803 43.7805 72.9584 44.3301 72.2987C44.9255 72.0042 44.9255 72.0042 45.6384 71.7929C46.0307 71.6713 46.0307 71.6713 46.431 71.5472C46.7095 71.4644 46.9879 71.3815 47.2748 71.2962C49.7571 70.5116 52.0624 69.6631 54.3102 68.3467C54.4483 68.2665 54.5865 68.1863 54.7288 68.1036C62.0456 63.7881 66.4674 56.8674 68.6131 48.7336C69.4778 45.2775 70.0629 41.6706 69.3963 38.1253C68.0123 38.239 66.7453 38.4715 65.4226 38.8908C65.2512 38.9435 65.0797 38.9962 64.9031 39.0505C64.3549 39.2197 63.8076 39.3916 63.2603 39.5637C62.8838 39.6806 62.5073 39.7974 62.1307 39.9141C59.6676 40.6798 57.2123 41.4668 54.7743 42.3098C54.5446 42.3865 54.3148 42.4632 54.0781 42.5422C53.7622 43.3173 53.814 44.1413 53.8094 44.9677C53.807 45.2711 53.8046 45.5744 53.8021 45.887C53.8013 46.0485 53.8006 46.21 53.7997 46.3764C53.797 46.8836 53.7925 47.3908 53.7874 47.898C53.7731 49.3398 53.7606 50.7816 53.7528 52.2234C53.7479 53.1063 53.7398 53.9891 53.7294 54.872C53.7262 55.2077 53.7241 55.5435 53.7234 55.8793C53.7222 56.3495 53.7165 56.8196 53.7105 57.2896C53.7077 57.6904 53.7077 57.6904 53.7049 58.0993C53.5424 59.3774 52.8471 60.1734 51.8704 60.982C50.5325 61.8866 49.042 62.5552 47.5794 63.2323C47.4337 63.3012 47.288 63.3701 47.1378 63.4411C46.3783 63.7873 45.7627 64.0174 44.9248 63.9733C44.652 63.9589 44.3791 63.9445 44.098 63.9297C43.5894 63.1046 43.5706 62.4237 43.5598 61.4644C43.5563 61.2364 43.5563 61.2364 43.5528 61.0037C43.5456 60.5031 43.5416 60.0025 43.5377 59.5018C43.5334 59.1539 43.5288 58.8061 43.5241 58.4582C43.5122 57.544 43.503 56.6299 43.4944 55.7157C43.4851 54.7822 43.4732 53.8488 43.4616 52.9154C43.4391 51.085 43.4195 49.2546 43.4017 47.4242C43.0332 47.5695 42.665 47.7154 42.2968 47.8616C42.0917 47.9428 41.8866 48.024 41.6753 48.1076C39.7855 48.891 37.4144 49.9518 36.4389 51.8411C35.9802 53.6697 35.9055 55.5182 35.9044 57.3942C35.9015 57.7849 35.9015 57.7849 35.8985 58.1834C35.8925 59.0339 35.8897 59.8845 35.8868 60.735C35.883 61.3293 35.879 61.9236 35.8748 62.5179C35.8653 63.9161 35.8577 65.3142 35.851 66.7124C35.8384 69.3709 35.8227 72.0293 35.8051 74.6877C35.7998 75.5611 35.796 76.4345 35.7924 77.3079C35.7893 77.8394 35.7861 78.371 35.7829 78.9025C35.7823 79.1464 35.7817 79.3903 35.7811 79.6417C35.7795 79.8632 35.7779 80.0848 35.7762 80.313C35.7753 80.5061 35.7744 80.6992 35.7735 80.8982C35.7426 81.3651 35.7426 81.3651 35.5105 81.8301C32.1421 83.0106 25.9402 80.0424 22.943 78.6136C18.6446 76.4688 15.2231 73.8307 11.8369 70.4389C11.681 70.2936 11.5252 70.1482 11.3646 69.9985C9.46044 68.1942 6.5592 65.2523 6.12158 62.5784C6.17949 61.2879 6.99817 60.593 7.8913 59.7452C8.05974 59.5828 8.22818 59.4203 8.40173 59.253C10.0035 57.7626 11.7245 56.4223 13.4616 55.0957C13.5983 54.9908 13.735 54.8859 13.8759 54.7778C17.2571 52.1959 20.8591 49.944 24.5946 47.9138C24.9117 47.7409 25.228 47.5664 25.5434 47.3903C39.5223 39.5885 55.8545 35.3564 71.7172 33.9408C71.948 33.9198 72.1788 33.8989 72.4166 33.8774C74.3887 33.7115 76.3601 33.6337 78.3378 33.5786C78.8745 33.5632 79.411 33.545 79.9475 33.5267C82.8808 33.4429 85.7061 33.5796 88.6601 33.7083C88.6601 28.108 88.6601 22.5078 88.6601 16.7378ZM24.9829 58.0507C24.8208 58.1858 24.6588 58.3209 24.4919 58.4601C24.3176 58.6061 24.1434 58.7521 23.9638 58.9025C22.2725 60.3099 20.5546 61.6731 18.7997 62.9998C18.9969 64.0851 19.6529 64.572 20.4679 65.2519C20.6827 65.434 20.6827 65.434 20.9018 65.6199C22.3555 66.8266 23.9151 67.8379 25.5305 68.8116C26.0375 68.3996 26.0375 68.3996 26.0505 67.876C26.0494 67.6829 26.0484 67.4898 26.0474 67.2909C26.0473 67.0722 26.0473 66.8535 26.0472 66.6281C26.0449 66.3915 26.0425 66.1549 26.04 65.9112C26.0393 65.6693 26.0387 65.4274 26.038 65.1782C26.0354 64.4036 26.0296 63.6291 26.0237 62.8545C26.0213 62.3302 26.0192 61.806 26.0173 61.2817C26.0122 59.9946 26.0044 58.7075 25.9947 57.4205C25.5746 57.4205 25.2924 57.791 24.9829 58.0507Z" fill="#FFA600"/>
<path d="M35.5097 -0.000530286C36.0288 1.03941 35.7945 2.45719 35.7975 3.61397C35.7998 4.13597 35.807 4.65775 35.8143 5.1797C35.8158 5.51282 35.817 5.84594 35.8179 6.17906C35.8201 6.48167 35.8223 6.78428 35.8245 7.09606C35.7367 7.95271 35.5573 8.38367 35.0455 9.06589C33.7601 10.0149 32.0981 10.4635 30.6067 10.9983C26.2754 12.5589 22.6045 14.6934 19.2631 17.8998C19.0896 18.059 18.916 18.2181 18.7372 18.382C14.9168 22.0013 12.6075 26.8608 11.1398 31.8482C11.0798 32.05 11.0199 32.2518 10.9581 32.4597C9.74147 36.7276 9.48871 41.4138 10.1886 45.8038C10.591 48.3367 10.591 48.3367 9.74722 49.5161C9.25203 49.964 8.72305 50.3067 8.15157 50.6494C7.83823 50.8463 7.52515 51.0437 7.21231 51.2415C6.97558 51.3891 6.97558 51.3891 6.73407 51.5398C6.28028 51.8315 5.84261 52.1374 5.40633 52.4547C5.20522 52.6004 5.20522 52.6004 5.00005 52.749C4.63247 53.0174 4.26597 53.2872 3.89953 53.5571C3.21351 53.9533 2.86396 54.0213 2.0881 53.9331C1.50301 52.6858 1.17049 51.4921 0.913125 50.1408C0.873857 49.9364 0.834589 49.7319 0.794131 49.5212C-0.898983 40.4284 -0.0626443 31.1738 3.94486 22.7818C4.03222 22.5984 4.11958 22.4151 4.20959 22.2262C8.8375 12.6733 16.6156 5.29518 26.6473 1.69545C28.0412 1.22254 29.4542 0.83326 30.8823 0.478944C31.1763 0.405056 31.1763 0.405056 31.4761 0.329676C32.8363 0.0146109 34.1162 -0.0555899 35.5097 -0.000530286Z" fill="#FFA600"/>
<path d="M44.0979 0.000190854C46.0098 -0.0958671 47.6781 0.164847 49.5231 0.654019C49.7675 0.714703 50.012 0.775386 50.2638 0.837909C51.4173 1.13445 52.3882 1.4115 53.3817 2.09244C53.6771 2.68423 53.645 3.10043 53.6479 3.76319C53.6496 4.01873 53.6512 4.27427 53.6529 4.53755C53.6536 4.81918 53.6542 5.10082 53.6548 5.39098C53.6571 5.8344 53.6571 5.8344 53.6595 6.28677C53.6635 7.09899 53.6659 7.9112 53.6679 8.72343C53.6691 9.23069 53.6705 9.73795 53.6719 10.2452C53.6763 11.8318 53.6796 13.4184 53.6816 15.0049C53.6839 16.8374 53.69 18.6698 53.6993 20.5023C53.7063 21.918 53.7098 23.3338 53.7105 24.7496C53.7111 25.5955 53.7132 26.4413 53.719 27.2872C53.7254 28.2307 53.7245 29.174 53.7228 30.1175C53.7258 30.3982 53.7288 30.6789 53.7318 30.9681C53.7302 31.2249 53.7286 31.4818 53.727 31.7464C53.7275 31.9695 53.7281 32.1927 53.7286 32.4225C53.5791 33.189 53.2879 33.4603 52.6854 33.9412C51.9666 34.1785 51.9666 34.1785 51.1287 34.3453C50.9046 34.3906 50.9046 34.3906 50.676 34.4368C50.3609 34.4996 50.0455 34.5606 49.7297 34.62C49.2505 34.7107 48.7729 34.8079 48.2951 34.906C45.5431 35.4469 45.5431 35.4469 44.0979 35.1035C43.5636 34.3008 43.5754 34.0032 43.5748 33.0576C43.5734 32.7763 43.5721 32.495 43.5708 32.2052C43.5717 31.893 43.5726 31.5809 43.5736 31.2687C43.573 30.9403 43.5722 30.6119 43.5712 30.2835C43.5691 29.3911 43.5699 28.4987 43.5713 27.6062C43.5725 26.6728 43.5714 25.7393 43.5707 24.8059C43.5699 23.2379 43.571 21.67 43.5732 20.1021C43.5757 18.2891 43.5749 16.4762 43.5723 14.6632C43.5702 13.1073 43.5699 11.5513 43.5711 9.99536C43.5719 9.0658 43.572 8.13626 43.5704 7.2067C43.5691 6.33259 43.57 5.45851 43.5727 4.5844C43.5733 4.26352 43.5731 3.94264 43.5721 3.62176C43.5708 3.18387 43.5727 2.74598 43.5748 2.30809C43.5749 2.06299 43.5751 1.81789 43.5753 1.56536C43.634 0.927295 43.77 0.544052 44.0979 0.000190854Z" fill="#FFA600"/>
<path d="M57.5592 4.18457C58.8382 4.29264 59.6121 4.76202 60.6345 5.4777C60.7874 5.58256 60.9404 5.68743 61.0979 5.79547C63.2278 7.27125 65.182 8.92564 67.0751 10.6938C67.2585 10.8622 67.4419 11.0306 67.6309 11.2041C73.1691 16.4916 76.7797 23.7328 78.4477 31.1514C78.3372 32.192 78.3372 32.192 77.9835 32.5462C76.9893 32.6407 75.9918 32.6755 74.994 32.7141C74.6592 32.728 74.3245 32.744 73.9899 32.7623C70.5082 32.9523 70.5082 32.9523 68.9318 31.8488C67.5708 30.603 67.048 28.5499 66.4019 26.8716C64.7129 22.5592 61.6788 19.2699 58.3317 16.1623C57.1372 14.8656 56.9921 13.7217 57.0107 12.0351C57.0106 11.8323 57.0105 11.6295 57.0104 11.4206C57.0109 10.9941 57.0132 10.5676 57.017 10.1411C57.0225 9.48751 57.0218 8.8342 57.0202 8.18064C57.0215 7.76549 57.0232 7.35034 57.0252 6.93519C57.025 6.73976 57.0248 6.54434 57.0246 6.34299C57.0357 5.42987 57.0425 4.96098 57.5592 4.18457Z" fill="#FFA600"/>
<path d="M169.893 16.738C171.731 16.738 173.569 16.738 175.463 16.738C176.407 19.8334 177.345 22.9296 178.248 26.0369C178.316 25.8529 178.384 25.6688 178.454 25.4792C178.707 24.7924 178.961 24.1057 179.215 23.4191C179.324 23.1226 179.433 22.8261 179.543 22.5296C179.7 22.1019 179.858 21.6743 180.016 21.2467C180.159 20.8614 180.159 20.8614 180.304 20.4683C180.539 19.8417 180.785 19.2194 181.034 18.5978C182.489 18.5978 183.944 18.5978 185.443 18.5978C186.481 21.0651 187.471 23.5501 188.461 26.0369C188.537 25.7635 188.613 25.4901 188.691 25.2084C188.973 24.1974 189.256 23.1867 189.539 22.1761C189.661 21.738 189.783 21.2999 189.905 20.8616C190.08 20.2331 190.256 19.6047 190.432 18.9765C190.487 18.7794 190.542 18.5823 190.598 18.3792C190.987 16.997 190.987 16.997 191.246 16.738C191.642 16.7178 192.039 16.7132 192.436 16.7153C192.796 16.7165 192.796 16.7165 193.164 16.7176C193.416 16.7196 193.669 16.7215 193.929 16.7235C194.31 16.7251 194.31 16.7251 194.698 16.7267C195.326 16.7294 195.955 16.7335 196.584 16.738C196.057 18.7338 195.468 20.7083 194.863 22.6815C194.766 22.9999 194.668 23.3183 194.571 23.6367C194.369 24.2981 194.166 24.9594 193.964 25.6206C193.704 26.4686 193.445 27.3168 193.186 28.1651C192.986 28.8199 192.785 29.4746 192.585 30.1292C192.489 30.4422 192.393 30.7552 192.298 31.0682C192.165 31.5034 192.031 31.9383 191.898 32.3732C191.822 32.6205 191.746 32.8678 191.668 33.1226C191.478 33.7085 191.478 33.7085 191.246 34.1735C189.791 34.1735 188.335 34.1735 186.836 34.1735C185.92 32.4094 185.096 30.6235 184.312 28.7975C184.218 28.5798 184.124 28.362 184.027 28.1376C183.94 27.9329 183.852 27.7281 183.763 27.5171C183.684 27.3328 183.605 27.1485 183.524 26.9585C183.355 26.5019 183.355 26.5019 183.355 26.0369C183.201 26.0369 183.048 26.0369 182.89 26.0369C182.864 26.1974 182.837 26.3578 182.81 26.523C182.637 27.2933 182.376 27.9863 182.085 28.7204C182.029 28.8621 181.974 29.0038 181.916 29.1498C181.739 29.5994 181.56 30.0485 181.382 30.4975C181.262 30.8018 181.142 31.1062 181.022 31.4106C180.149 33.6206 180.149 33.6206 179.873 34.1735C178.341 34.1735 176.809 34.1735 175.231 34.1735C174.016 30.5756 172.852 26.9653 171.747 23.3319C171.512 22.5612 171.276 21.7909 171.04 21.0206C170.89 20.5285 170.739 20.0363 170.589 19.5441C170.519 19.3148 170.449 19.0855 170.376 18.8493C170.313 18.6393 170.249 18.4293 170.183 18.2129C170.127 18.0284 170.071 17.8439 170.013 17.6538C169.893 17.203 169.893 17.203 169.893 16.738Z" fill="#FFA600"/>
<path d="M131.365 16.7378C136.239 16.7378 136.239 16.7378 137.327 17.7839C137.595 18.2815 137.85 18.7862 138.096 19.295C138.393 19.7928 138.701 20.282 139.012 20.7711C139.22 21.0987 139.424 21.4283 139.626 21.76C139.765 21.989 139.765 21.989 139.906 22.2227C140.029 22.4265 140.029 22.4265 140.154 22.6345C140.437 23.0433 140.753 23.3711 141.113 23.712C141.237 23.5255 141.361 23.339 141.489 23.1468C141.756 22.7467 142.022 22.3465 142.288 21.9463C142.383 21.8039 142.478 21.6615 142.576 21.5148C142.674 21.3676 142.772 21.2203 142.873 21.0686C143.021 20.8451 143.021 20.8451 143.173 20.6172C144.464 18.6775 144.464 18.6775 145.755 16.7378C147.363 16.7378 148.972 16.7378 150.629 16.7378C150.629 22.4915 150.629 28.2452 150.629 34.1732C148.867 34.1732 147.106 34.1732 145.291 34.1732C145.176 30.1456 145.176 30.1456 145.059 26.0367C144.604 26.6792 144.149 27.3217 143.681 27.9836C143.537 28.1857 143.394 28.3878 143.247 28.596C143.134 28.7554 143.021 28.9147 142.906 29.0788C142.79 29.2419 142.675 29.4051 142.556 29.5732C142.262 29.9855 142.262 29.9855 142.042 30.4537C141.295 30.6251 140.696 30.6597 139.953 30.4537C139.184 29.696 138.659 28.8131 138.096 27.8965C137.636 27.206 137.177 26.5156 136.703 25.8042C136.703 28.566 136.703 31.3278 136.703 34.1732C134.942 34.1732 133.18 34.1732 131.365 34.1732C131.365 28.4195 131.365 22.6658 131.365 16.7378Z" fill="#FFA600"/>
<path d="M124.867 39.9854C129.973 39.9854 129.973 39.9854 131.365 41.3511C131.695 41.8206 131.695 41.8206 131.926 42.2438C132.594 43.3905 133.41 44.399 134.238 45.4339C134.506 45.7768 134.774 46.1204 135.041 46.4646C135.155 46.6107 135.268 46.7568 135.386 46.9072C135.916 47.6118 136.423 48.3337 136.936 49.0518C136.936 46.0599 136.936 43.0679 136.936 39.9854C138.697 39.9854 140.459 39.9854 142.274 39.9854C142.274 45.739 142.274 51.4927 142.274 57.4208C140.589 57.4208 138.904 57.4208 137.168 57.4208C136.089 56.1859 135.06 54.9635 134.078 53.6576C132.794 51.9614 131.501 50.274 130.205 48.5868C130.205 51.502 130.205 54.4172 130.205 57.4208C128.443 57.4208 126.682 57.4208 124.867 57.4208C124.867 51.6671 124.867 45.9134 124.867 39.9854Z" fill="#FFA600"/>
<path d="M213.991 18.3654C215.808 20.0461 216.834 22.1097 217.068 24.5758C217.162 26.9774 216.637 29.3532 215.062 31.2204C214.939 31.351 214.815 31.4817 214.687 31.6163C214.568 31.7422 214.449 31.868 214.326 31.9977C212.374 33.8504 209.751 34.623 207.111 34.6457C204.171 34.5265 201.598 33.7578 199.427 31.6953C197.62 29.7094 196.919 27.35 196.976 24.693C197.22 22.1475 198.163 20.1417 200.045 18.4253C203.981 15.2688 210.002 15.391 213.991 18.3654ZM203.692 22.3901C202.694 23.6976 202.517 24.798 202.725 26.4093C203.021 27.7287 203.855 28.5502 204.939 29.2916C205.908 29.8159 206.875 29.9164 207.956 29.7565C209.323 29.312 210.173 28.6117 210.974 27.4318C211.585 26.2069 211.499 25.0206 211.206 23.7122C210.554 22.4539 209.739 21.6528 208.435 21.0969C206.617 20.651 204.969 20.9793 203.692 22.3901Z" fill="#FFA600"/>
<path d="M125.331 18.3654C127.148 20.0461 128.174 22.1097 128.408 24.5758C128.502 26.9774 127.977 29.3532 126.402 31.2204C126.278 31.351 126.155 31.4817 126.027 31.6163C125.908 31.7422 125.789 31.868 125.666 31.9977C123.714 33.8504 121.091 34.623 118.451 34.6457C115.511 34.5265 112.937 33.7578 110.767 31.6953C108.96 29.7094 108.259 27.35 108.316 24.693C108.56 22.1475 109.502 20.1417 111.385 18.4253C115.32 15.2688 121.342 15.391 125.331 18.3654ZM115.031 22.3901C114.033 23.6976 113.857 24.798 114.065 26.4093C114.361 27.7287 115.195 28.5502 116.279 29.2916C117.247 29.8159 118.215 29.9164 119.296 29.7565C120.663 29.312 121.512 28.6117 122.313 27.4318C122.925 26.2069 122.839 25.0206 122.546 23.7122C121.894 22.4539 121.079 21.6528 119.775 21.0969C117.957 20.651 116.309 20.9793 115.031 22.3901Z" fill="#FFA600"/>
<path d="M88.6602 39.9851C91.2307 39.9563 91.2307 39.9563 93.8533 39.927C94.6576 39.9143 94.6576 39.9143 95.4783 39.9013C95.9103 39.8986 96.3423 39.8963 96.7744 39.8943C97.1024 39.8872 97.1024 39.8872 97.437 39.8799C99.245 39.8789 100.838 40.2623 102.274 41.4063C103.529 42.9054 104.112 44.1918 104.048 46.1711C103.798 48.1651 102.914 49.3365 101.385 50.5862C101.245 50.6935 101.105 50.8008 100.961 50.9113C102.046 52.8397 103.159 54.7433 104.334 56.6187C104.675 57.1881 104.675 57.1881 104.675 57.4205C99.2628 57.973 99.2628 57.973 97.925 57.1083C97.2076 56.3077 96.8273 55.3688 96.4783 54.3617C96.2658 53.7896 95.9542 53.315 95.6085 52.8147C95.1588 52.0737 95.1588 52.0737 95.1588 51.6087C94.6993 51.6087 94.2397 51.6087 93.7662 51.6087C93.7662 53.5266 93.7662 55.4445 93.7662 57.4205C92.0812 57.4205 90.3962 57.4205 88.6602 57.4205C88.6602 51.6669 88.6602 45.9132 88.6602 39.9851ZM93.7662 44.1696C93.7662 45.3971 93.7662 46.6245 93.7662 47.8892C94.5345 47.9107 94.5345 47.9107 95.3184 47.9328C95.6065 47.9409 95.8946 47.9489 96.1914 47.9573C97.0726 47.8845 97.4831 47.7282 98.176 47.1918C98.7203 46.521 98.7203 46.521 98.6112 45.6807C98.48 44.8845 98.48 44.8845 98.0509 44.4702C97.2348 44.0407 96.4613 44.0953 95.565 44.126C94.6746 44.1476 94.6746 44.1476 93.7662 44.1696Z" fill="#FFA600"/>
<path d="M220.025 16.738C222.596 16.7093 222.596 16.7093 225.219 16.6799C226.023 16.6672 226.023 16.6672 226.844 16.6543C227.276 16.6515 227.708 16.6492 228.14 16.6472C228.468 16.6401 228.468 16.6401 228.802 16.6328C230.61 16.6319 232.204 17.0152 233.639 18.1592C234.894 19.6584 235.477 20.9448 235.413 22.924C235.163 24.918 234.279 26.0894 232.751 27.3391C232.611 27.4464 232.471 27.5537 232.326 27.6642C233.412 29.5926 234.525 31.4962 235.699 33.3716C236.04 33.941 236.04 33.941 236.04 34.1735C230.628 34.7259 230.628 34.7259 229.29 33.8612C228.573 33.0606 228.193 32.1217 227.844 31.1147C227.631 30.5425 227.319 30.068 226.974 29.5676C226.524 28.8266 226.524 28.8266 226.524 28.3617C226.064 28.3617 225.605 28.3617 225.131 28.3617C225.131 30.2796 225.131 32.1975 225.131 34.1735C223.446 34.1735 221.761 34.1735 220.025 34.1735C220.025 28.4198 220.025 22.6661 220.025 16.738ZM225.131 20.9225C225.131 22.15 225.131 23.3775 225.131 24.6421C225.9 24.6637 225.9 24.6637 226.684 24.6857C226.972 24.6938 227.26 24.7019 227.557 24.7102C228.438 24.6374 228.848 24.4811 229.541 23.9447C230.086 23.274 230.086 23.274 229.976 22.4336C229.845 21.6374 229.845 21.6374 229.416 21.2231C228.6 20.7936 227.827 20.8483 226.93 20.879C226.04 20.9005 226.04 20.9005 225.131 20.9225Z" fill="#FFA600"/>
<path d="M236.504 16.7381C242.283 16.1064 242.283 16.1064 243.819 17.126C244.708 18.0641 245.308 19.1448 245.818 20.3274C245.918 20.507 245.918 20.507 246.02 20.6902C246.173 20.6902 246.326 20.6902 246.484 20.6902C246.786 20.3685 246.786 20.3685 247.08 19.9437C247.192 19.7885 247.305 19.6333 247.421 19.4733C247.538 19.3091 247.655 19.1449 247.775 18.9757C247.893 18.8133 248.011 18.6508 248.132 18.4835C248.749 17.6407 248.749 17.6407 249.269 16.7381C251.414 16.7381 253.558 16.7381 255.768 16.7381C254.724 18.5683 254.724 18.5683 254.103 19.4007C253.969 19.5819 253.835 19.7631 253.696 19.9498C253.557 20.1366 253.417 20.3234 253.273 20.5158C252.983 20.9059 252.694 21.2961 252.404 21.6863C252.265 21.8737 252.126 22.061 251.982 22.254C251.224 23.2763 250.479 24.3079 249.733 25.3396C250.107 26.1805 250.62 26.8529 251.184 27.5772C251.283 27.7046 251.381 27.8321 251.483 27.9634C252.114 28.777 252.75 29.5864 253.386 30.3959C253.533 30.5836 253.68 30.7713 253.832 30.9647C254.123 31.3372 254.416 31.709 254.71 32.0801C254.844 32.2513 254.978 32.4225 255.116 32.5989C255.236 32.7513 255.356 32.9038 255.48 33.0608C255.768 33.4761 255.768 33.4761 256 34.1736C250.259 34.8425 250.259 34.8425 248.662 33.7629C247.714 32.7653 247.051 31.6183 246.475 30.3732C246.401 30.2464 246.328 30.1197 246.252 29.9891C246.099 29.9891 245.946 29.9891 245.788 29.9891C245.543 30.3902 245.543 30.3902 245.311 30.9044C244.631 32.1724 243.975 33.3441 242.771 34.1736C240.664 34.7098 238.408 34.432 236.272 34.1736C237.279 32.5362 238.339 30.984 239.536 29.4805C239.942 28.9653 240.348 28.4498 240.751 27.9319C241.018 27.5931 241.293 27.2595 241.573 26.9309C242.338 26.0724 242.338 26.0724 242.488 24.9982C241.872 24.1216 241.234 23.2712 240.566 22.4337C240.273 22.0608 239.979 21.6879 239.686 21.3149C239.399 20.9517 239.112 20.5884 238.825 20.2252C238.369 19.6455 237.914 19.0642 237.461 18.4817C237.182 18.1257 237.182 18.1257 236.898 17.7625C236.504 17.2031 236.504 17.2031 236.504 16.7381Z" fill="#FFA600"/>
<path d="M107.459 39.9854C111.978 39.9854 116.497 39.9854 121.153 39.9854C121.153 41.3662 121.153 42.7471 121.153 44.1699C118.396 44.1699 115.638 44.1699 112.798 44.1699C112.798 44.937 112.798 45.7042 112.798 46.4946C115.172 46.4946 117.546 46.4946 119.993 46.4946C119.993 47.8755 119.993 49.2563 119.993 50.6791C117.618 50.6791 115.244 50.6791 112.798 50.6791C112.798 51.523 112.798 52.3668 112.798 53.2363C115.708 53.2363 118.619 53.2363 121.617 53.2363C121.617 54.6172 121.617 55.998 121.617 57.4208C116.945 57.4208 112.273 57.4208 107.459 57.4208C107.459 51.6671 107.459 45.9134 107.459 39.9854Z" fill="#FFA600"/>
<path d="M154.807 16.7378C159.326 16.7378 163.844 16.7378 168.5 16.7378C168.5 18.1187 168.5 19.4996 168.5 20.9223C165.743 20.9223 162.986 20.9223 160.145 20.9223C160.145 21.6895 160.145 22.4566 160.145 23.247C162.519 23.247 164.893 23.247 167.34 23.247C167.34 24.6279 167.34 26.0088 167.34 27.4315C164.965 27.4315 162.591 27.4315 160.145 27.4315C160.145 28.2754 160.145 29.1193 160.145 29.9887C163.055 29.9887 165.966 29.9887 168.964 29.9887C168.964 31.3696 168.964 32.7505 168.964 34.1732C164.292 34.1732 159.62 34.1732 154.807 34.1732C154.807 28.4195 154.807 22.6658 154.807 16.7378Z" fill="#FFA600"/>
<path d="M35.2784 17.9005C35.9444 18.5676 35.8129 19.2346 35.8137 20.1283C35.8156 20.3102 35.8176 20.492 35.8196 20.6794C35.8252 21.2827 35.8272 21.8858 35.8287 22.4891C35.8308 22.9078 35.8329 23.3265 35.8351 23.7453C35.8389 24.6241 35.8407 25.5029 35.8413 26.3818C35.8426 27.5076 35.8513 28.6331 35.8619 29.7588C35.8689 30.6242 35.8705 31.4895 35.8708 32.3549C35.8717 32.7698 35.8746 33.1848 35.8795 33.5997C35.8857 34.1808 35.8846 34.7614 35.8817 35.3425C35.8851 35.5137 35.8886 35.6849 35.8921 35.8612C35.8792 36.7678 35.7728 37.1582 35.1974 37.8727C34.5132 38.4124 33.9433 38.6592 33.1143 38.9211C32.8374 39.0107 32.5605 39.1003 32.2752 39.1926C31.9882 39.2816 31.7011 39.3706 31.4053 39.4623C30.8338 39.6449 30.2623 39.8278 29.6909 40.0108C29.4382 40.0898 29.1855 40.1689 28.9251 40.2503C28.329 40.4294 28.329 40.4294 27.8514 40.6828C27.0245 40.7118 27.0245 40.7118 26.2267 40.6828C25.7816 40.2369 25.9535 39.4105 25.9499 38.8028C25.948 38.6305 25.9461 38.4581 25.9441 38.2805C25.9383 37.7073 25.9345 37.1341 25.9312 36.5609C25.9299 36.3654 25.9287 36.1699 25.9274 35.9684C25.9212 34.9328 25.9167 33.8972 25.9134 32.8615C25.9095 31.7923 25.8991 30.7233 25.8873 29.6542C25.8795 28.8319 25.8768 28.0097 25.8755 27.1874C25.8739 26.7934 25.8704 26.3993 25.8648 26.0054C25.8575 25.4527 25.8575 24.9005 25.8592 24.3478C25.8535 24.1048 25.8535 24.1048 25.8477 23.8569C25.8642 22.5558 26.2745 22.0407 27.1551 21.1551C29.3162 19.515 32.4997 17.6543 35.2784 17.9005Z" fill="#FFA600"/>
<path d="M168.721 39.959C168.914 39.9602 169.107 39.9614 169.306 39.9627C169.515 39.9634 169.724 39.9642 169.939 39.9649C170.268 39.9679 170.268 39.9679 170.604 39.9708C170.824 39.9719 171.044 39.9729 171.271 39.974C171.818 39.9768 172.364 39.9806 172.91 39.9854C173.076 40.383 173.076 40.383 173.246 40.7886C173.578 41.5842 173.911 42.3797 174.243 43.1752C174.623 44.0835 175.002 44.9918 175.382 45.9001C176.265 48.0148 177.149 50.1292 178.037 52.2419C178.178 52.5782 178.32 52.9145 178.461 53.2508C178.721 53.8714 178.983 54.4918 179.244 55.112C179.359 55.3855 179.474 55.6589 179.592 55.9406C179.692 56.1777 179.792 56.4148 179.894 56.659C180.105 57.1883 180.105 57.1883 180.105 57.4208C178.267 57.4208 176.429 57.4208 174.535 57.4208C173.606 55.3286 173.606 55.3286 173.606 54.6311C170.505 54.7462 170.505 54.7462 167.34 54.8636C167.034 55.7075 166.727 56.5514 166.412 57.4208C164.573 57.4208 162.735 57.4208 160.841 57.4208C161.969 54.2588 163.302 51.1952 164.645 48.121C165.121 47.0288 165.591 45.9339 166.058 44.8373C166.122 44.686 166.187 44.5347 166.253 44.3787C166.562 43.6523 166.871 42.9256 167.179 42.1986C167.288 41.9414 167.398 41.6842 167.51 41.4193C167.607 41.1922 167.703 40.9651 167.802 40.7311C168.139 39.9929 168.139 39.9929 168.721 39.959ZM170.357 46.7271C170.124 47.2932 169.892 47.8598 169.661 48.427C169.594 48.5875 169.528 48.748 169.46 48.9133C169.176 49.6133 168.965 50.1488 168.965 50.9116C169.96 50.9116 170.956 50.9116 171.982 50.9116C171.522 49.5307 171.063 48.1498 170.589 46.7271C170.513 46.7271 170.436 46.7271 170.357 46.7271Z" fill="#FFA600"/>
<path d="M145.059 39.9854C150.65 39.9854 156.241 39.9854 162.002 39.9854C162.002 41.443 162.002 42.9006 162.002 44.4023C160.087 44.4023 158.172 44.4023 156.2 44.4023C156.2 48.6984 156.2 52.9945 156.2 57.4208C154.361 57.4208 152.523 57.4208 150.629 57.4208C150.629 53.1247 150.629 48.8286 150.629 44.4023C148.791 44.4023 146.953 44.4023 145.059 44.4023C145.059 42.9447 145.059 41.4871 145.059 39.9854Z" fill="#FFA600"/>
<path d="M181.498 39.9854C183.336 39.9854 185.174 39.9854 187.068 39.9854C187.068 44.2814 187.068 48.5775 187.068 53.0038C189.672 53.0038 192.276 53.0038 194.959 53.0038C194.959 54.4614 194.959 55.919 194.959 57.4208C190.517 57.4208 186.074 57.4208 181.498 57.4208C181.498 51.6671 181.498 45.9134 181.498 39.9854Z" fill="#FFA600"/>
</g>
<defs>
<clipPath id="clip0_1212_6372">
<rect width="256" height="82.0627" fill="white"/>
</clipPath>
</defs>
</svg>
