<svg width="36" height="36" viewBox="0 0 36 36" fill="none" xmlns="http://www.w3.org/2000/svg">
<path d="M12.8957 28.2394H12.1665C6.33317 28.2394 3.4165 26.7811 3.4165 19.4894V12.1978C3.4165 6.36442 6.33317 3.44775 12.1665 3.44775H23.8332C29.6665 3.44775 32.5832 6.36442 32.5832 12.1978V19.4894C32.5832 25.3228 29.6665 28.2394 23.8332 28.2394H23.104C22.6519 28.2394 22.2144 28.4582 21.9373 28.8228L19.7498 31.7394C18.7873 33.0228 17.2123 33.0228 16.2498 31.7394L14.0623 28.8228C13.829 28.5019 13.2894 28.2394 12.8957 28.2394Z" stroke="#292D32" stroke-width="2" stroke-miterlimit="10" stroke-linecap="round" stroke-linejoin="round"/>
<path d="M23.8281 16.5729H23.8412" stroke="#292D32" stroke-width="2" stroke-linecap="round" stroke-linejoin="round"/>
<path d="M17.9936 16.5729H18.0067" stroke="#292D32" stroke-width="2" stroke-linecap="round" stroke-linejoin="round"/>
<path d="M12.1587 16.5729H12.1718" stroke="#292D32" stroke-width="2" stroke-linecap="round" stroke-linejoin="round"/>
</svg>
