<svg width="588" height="743" viewBox="0 0 588 743" fill="none" xmlns="http://www.w3.org/2000/svg">
<path d="M364.708 211.019C335.817 211.019 306.408 209.846 278.898 202.188C251.906 194.702 227.122 180.179 205.031 163.379C190.569 152.443 177.418 143.715 158.64 145.026C140.271 146.02 122.704 152.875 108.521 164.586C84.6356 185.491 88.2254 224.232 97.7867 251.346C112.146 292.295 155.845 320.824 192.985 339.28C235.89 360.702 283.006 373.156 330.294 380.297C371.715 386.61 424.94 391.163 460.838 364.152C493.802 339.28 502.846 282.566 494.769 244.275C492.809 232.962 486.782 222.755 477.821 215.573C454.66 198.635 420.108 209.95 394.082 210.502C384.417 210.709 374.58 210.95 364.708 211.019Z" fill="#F2F2F2"/>
<path d="M415.104 372.707H185.461V221.472L300.507 142.404L415.104 221.472V372.707Z" fill="#D2D2D2"/>
<path d="M357.417 119.509L191.643 164.554C186.419 165.973 183.335 171.357 184.755 176.578L221.676 312.296C223.097 317.518 228.483 320.599 233.707 319.18L399.482 274.135C404.706 272.716 407.79 267.332 406.369 262.111L369.449 126.392C368.028 121.171 362.642 118.089 357.417 119.509Z" fill="white" stroke="#BABABA" stroke-linecap="round" stroke-linejoin="round"/>
<path d="M415.104 373.639H185.461V222.438L294.639 291.639L415.104 222.438V373.639Z" fill="white" stroke="#BABABA" stroke-linecap="round" stroke-linejoin="round"/>
<path d="M185.461 373.639L293.776 270.147C295.818 268.162 298.555 267.052 301.404 267.052C304.253 267.052 306.99 268.162 309.032 270.147L415.104 373.639H185.461Z" fill="white" stroke="#BABABA" stroke-linecap="round" stroke-linejoin="round"/>
<path d="M267.232 237.72C266.807 229.673 269.153 221.724 273.88 215.196C278.606 208.668 285.427 203.955 293.207 201.842C300.987 199.728 309.257 200.342 316.64 203.581C324.022 206.82 330.071 212.489 333.781 219.643" stroke="#BABABA" stroke-linecap="round" stroke-linejoin="round"/>
<path d="M325.981 178.972C328.688 178.972 330.882 176.778 330.882 174.073C330.882 171.367 328.688 169.174 325.981 169.174C323.274 169.174 321.079 171.367 321.079 174.073C321.079 176.778 323.274 178.972 325.981 178.972Z" fill="#BABABA"/>
<path d="M250.871 199.393C253.578 199.393 255.773 197.2 255.773 194.495C255.773 191.789 253.578 189.596 250.871 189.596C248.164 189.596 245.97 191.789 245.97 194.495C245.97 197.2 248.164 199.393 250.871 199.393Z" fill="#BABABA"/>
<path d="M410.858 171.693C412.726 171.693 414.241 170.179 414.241 168.312C414.241 166.445 412.726 164.931 410.858 164.931C408.99 164.931 407.476 166.445 407.476 168.312C407.476 170.179 408.99 171.693 410.858 171.693Z" fill="#CFCFCF"/>
<path d="M168.099 344.661C169.967 344.661 171.481 343.148 171.481 341.281C171.481 339.414 169.967 337.9 168.099 337.9C166.23 337.9 164.716 339.414 164.716 341.281C164.716 343.148 166.23 344.661 168.099 344.661Z" fill="#CFCFCF"/>
<path d="M467.466 166.656V181.524" stroke="#BABABA" stroke-linecap="round" stroke-linejoin="round"/>
<path d="M460.045 174.107H474.887" stroke="#BABABA" stroke-linecap="round" stroke-linejoin="round"/>
<path d="M447.377 398.891V413.724" stroke="#BABABA" stroke-linecap="round" stroke-linejoin="round"/>
<path d="M439.956 406.308H454.798" stroke="#BABABA" stroke-linecap="round" stroke-linejoin="round"/>
<path d="M162.68 91.7969V106.631" stroke="#BABABA" stroke-linecap="round" stroke-linejoin="round"/>
<path d="M155.258 99.2139H170.1" stroke="#BABABA" stroke-linecap="round" stroke-linejoin="round"/>
<path d="M295.398 447.428C365.379 447.428 422.111 443.891 422.111 439.528C422.111 435.165 365.379 431.628 295.398 431.628C225.417 431.628 168.686 435.165 168.686 439.528C168.686 443.891 225.417 447.428 295.398 447.428Z" fill="#F2F2F2"/>
<path d="M177.168 574V548.8H182.64L195.852 566.8L194.664 566.62C194.544 565.828 194.448 565.072 194.376 564.352C194.304 563.632 194.232 562.924 194.16 562.228C194.112 561.532 194.064 560.824 194.016 560.104C193.992 559.384 193.968 558.604 193.944 557.764C193.944 556.924 193.944 556.012 193.944 555.028V548.8H199.884V574H194.34L180.552 555.424L182.388 555.676C182.508 556.828 182.604 557.812 182.676 558.628C182.772 559.42 182.844 560.128 182.892 560.752C182.964 561.376 183.012 561.94 183.036 562.444C183.06 562.948 183.072 563.452 183.072 563.956C183.096 564.436 183.108 564.976 183.108 565.576V574H177.168ZM214.595 574.36C212.603 574.36 210.827 573.928 209.267 573.064C207.731 572.2 206.507 571.024 205.595 569.536C204.707 568.048 204.263 566.344 204.263 564.424C204.263 562.504 204.707 560.8 205.595 559.312C206.507 557.824 207.731 556.648 209.267 555.784C210.827 554.92 212.603 554.488 214.595 554.488C216.587 554.488 218.351 554.92 219.887 555.784C221.447 556.648 222.671 557.824 223.559 559.312C224.447 560.8 224.891 562.504 224.891 564.424C224.891 566.344 224.447 568.048 223.559 569.536C222.671 571.024 221.447 572.2 219.887 573.064C218.351 573.928 216.587 574.36 214.595 574.36ZM214.595 569.392C215.459 569.392 216.227 569.176 216.899 568.744C217.571 568.312 218.099 567.724 218.483 566.98C218.867 566.236 219.047 565.384 219.023 564.424C219.047 563.464 218.867 562.612 218.483 561.868C218.099 561.1 217.571 560.5 216.899 560.068C216.227 559.636 215.459 559.42 214.595 559.42C213.731 559.42 212.951 559.636 212.255 560.068C211.583 560.5 211.055 561.1 210.671 561.868C210.287 562.612 210.107 563.464 210.131 564.424C210.107 565.384 210.287 566.236 210.671 566.98C211.055 567.724 211.583 568.312 212.255 568.744C212.951 569.176 213.731 569.392 214.595 569.392ZM240.801 574V548.8H246.273L255.453 563.74L251.529 563.704L260.817 548.8H266.073V574H260.133V566.152C260.133 563.992 260.181 562.048 260.277 560.32C260.397 558.592 260.589 556.876 260.853 555.172L261.537 557.044L254.553 567.88H252.177L245.337 557.116L246.021 555.172C246.285 556.78 246.465 558.436 246.561 560.14C246.681 561.82 246.741 563.824 246.741 566.152V574H240.801ZM280.902 574.36C278.79 574.36 276.954 573.94 275.394 573.1C273.834 572.236 272.622 571.072 271.758 569.608C270.894 568.12 270.462 566.428 270.462 564.532C270.462 563.068 270.702 561.724 271.182 560.5C271.662 559.276 272.334 558.22 273.198 557.332C274.062 556.42 275.082 555.724 276.258 555.244C277.458 554.74 278.766 554.488 280.182 554.488C281.526 554.488 282.75 554.728 283.854 555.208C284.982 555.688 285.954 556.36 286.77 557.224C287.586 558.088 288.21 559.108 288.642 560.284C289.074 561.46 289.266 562.744 289.218 564.136L289.182 565.684H273.954L273.126 562.444H284.502L283.89 563.128V562.408C283.842 561.808 283.65 561.28 283.314 560.824C283.002 560.344 282.582 559.972 282.054 559.708C281.526 559.444 280.926 559.312 280.254 559.312C279.318 559.312 278.514 559.504 277.842 559.888C277.194 560.248 276.702 560.788 276.366 561.508C276.03 562.204 275.862 563.068 275.862 564.1C275.862 565.156 276.078 566.08 276.51 566.872C276.966 567.64 277.614 568.24 278.454 568.672C279.318 569.104 280.338 569.32 281.514 569.32C282.33 569.32 283.05 569.2 283.674 568.96C284.322 568.72 285.018 568.312 285.762 567.736L288.462 571.552C287.718 572.2 286.926 572.728 286.086 573.136C285.246 573.544 284.382 573.844 283.494 574.036C282.63 574.252 281.766 574.36 280.902 574.36ZM299.332 574.36C297.46 574.36 295.804 574.06 294.364 573.46C292.948 572.86 291.82 572.056 290.98 571.048L294.472 568.024C295.216 568.768 296.056 569.32 296.992 569.68C297.928 570.016 298.816 570.184 299.656 570.184C299.992 570.184 300.292 570.148 300.556 570.076C300.82 570.004 301.036 569.908 301.204 569.788C301.396 569.644 301.54 569.488 301.636 569.32C301.732 569.128 301.78 568.912 301.78 568.672C301.78 568.192 301.564 567.82 301.132 567.556C300.916 567.436 300.556 567.292 300.052 567.124C299.548 566.956 298.9 566.764 298.108 566.548C296.98 566.26 295.996 565.924 295.156 565.54C294.34 565.132 293.668 564.664 293.14 564.136C292.66 563.632 292.288 563.08 292.024 562.48C291.76 561.856 291.628 561.16 291.628 560.392C291.628 559.504 291.832 558.7 292.24 557.98C292.672 557.26 293.236 556.636 293.932 556.108C294.652 555.58 295.468 555.184 296.38 554.92C297.316 554.632 298.276 554.488 299.26 554.488C300.316 554.488 301.324 554.608 302.284 554.848C303.244 555.088 304.132 555.424 304.948 555.856C305.788 556.288 306.532 556.804 307.18 557.404L304.156 560.788C303.724 560.38 303.232 560.02 302.68 559.708C302.152 559.372 301.6 559.108 301.024 558.916C300.448 558.724 299.92 558.628 299.44 558.628C299.08 558.628 298.756 558.664 298.468 558.736C298.204 558.784 297.976 558.88 297.784 559.024C297.592 559.144 297.448 559.3 297.352 559.492C297.256 559.66 297.208 559.864 297.208 560.104C297.208 560.344 297.268 560.572 297.388 560.788C297.532 561.004 297.724 561.184 297.964 561.328C298.204 561.472 298.588 561.64 299.116 561.832C299.644 562 300.364 562.216 301.276 562.48C302.404 562.792 303.376 563.14 304.192 563.524C305.008 563.908 305.656 564.364 306.136 564.892C306.52 565.3 306.808 565.78 307 566.332C307.192 566.86 307.288 567.436 307.288 568.06C307.288 569.284 306.94 570.376 306.244 571.336C305.572 572.272 304.636 573.016 303.436 573.568C302.236 574.096 300.868 574.36 299.332 574.36ZM317.156 574.36C315.284 574.36 313.628 574.06 312.188 573.46C310.772 572.86 309.644 572.056 308.804 571.048L312.296 568.024C313.04 568.768 313.88 569.32 314.816 569.68C315.752 570.016 316.64 570.184 317.48 570.184C317.816 570.184 318.116 570.148 318.38 570.076C318.644 570.004 318.86 569.908 319.028 569.788C319.22 569.644 319.364 569.488 319.46 569.32C319.556 569.128 319.604 568.912 319.604 568.672C319.604 568.192 319.388 567.82 318.956 567.556C318.74 567.436 318.38 567.292 317.876 567.124C317.372 566.956 316.724 566.764 315.932 566.548C314.804 566.26 313.82 565.924 312.98 565.54C312.164 565.132 311.492 564.664 310.964 564.136C310.484 563.632 310.112 563.08 309.848 562.48C309.584 561.856 309.452 561.16 309.452 560.392C309.452 559.504 309.656 558.7 310.064 557.98C310.496 557.26 311.06 556.636 311.756 556.108C312.476 555.58 313.292 555.184 314.204 554.92C315.14 554.632 316.1 554.488 317.084 554.488C318.14 554.488 319.148 554.608 320.108 554.848C321.068 555.088 321.956 555.424 322.772 555.856C323.612 556.288 324.356 556.804 325.004 557.404L321.98 560.788C321.548 560.38 321.056 560.02 320.504 559.708C319.976 559.372 319.424 559.108 318.848 558.916C318.272 558.724 317.744 558.628 317.264 558.628C316.904 558.628 316.58 558.664 316.292 558.736C316.028 558.784 315.8 558.88 315.608 559.024C315.416 559.144 315.272 559.3 315.176 559.492C315.08 559.66 315.032 559.864 315.032 560.104C315.032 560.344 315.092 560.572 315.212 560.788C315.356 561.004 315.548 561.184 315.788 561.328C316.028 561.472 316.412 561.64 316.94 561.832C317.468 562 318.188 562.216 319.1 562.48C320.228 562.792 321.2 563.14 322.016 563.524C322.832 563.908 323.48 564.364 323.96 564.892C324.344 565.3 324.632 565.78 324.824 566.332C325.016 566.86 325.112 567.436 325.112 568.06C325.112 569.284 324.764 570.376 324.068 571.336C323.396 572.272 322.46 573.016 321.26 573.568C320.06 574.096 318.692 574.36 317.156 574.36ZM335.592 574.324C333.984 574.324 332.544 573.904 331.272 573.064C330.024 572.2 329.028 571.024 328.284 569.536C327.54 568.024 327.168 566.32 327.168 564.424C327.168 562.48 327.54 560.764 328.284 559.276C329.028 557.788 330.048 556.624 331.344 555.784C332.64 554.92 334.116 554.488 335.772 554.488C336.684 554.488 337.512 554.62 338.256 554.884C339.024 555.148 339.696 555.52 340.272 556C340.848 556.456 341.34 556.996 341.748 557.62C342.156 558.22 342.456 558.868 342.648 559.564L341.46 559.42V554.884H347.184V574H341.352V569.392L342.648 569.356C342.456 570.028 342.144 570.664 341.712 571.264C341.28 571.864 340.752 572.392 340.128 572.848C339.504 573.304 338.808 573.664 338.04 573.928C337.272 574.192 336.456 574.324 335.592 574.324ZM337.176 569.464C338.064 569.464 338.832 569.26 339.48 568.852C340.128 568.444 340.632 567.868 340.992 567.124C341.352 566.356 341.532 565.456 341.532 564.424C341.532 563.392 341.352 562.504 340.992 561.76C340.632 560.992 340.128 560.404 339.48 559.996C338.832 559.564 338.064 559.348 337.176 559.348C336.312 559.348 335.556 559.564 334.908 559.996C334.284 560.404 333.792 560.992 333.432 561.76C333.072 562.504 332.892 563.392 332.892 564.424C332.892 565.456 333.072 566.356 333.432 567.124C333.792 567.868 334.284 568.444 334.908 568.852C335.556 569.26 336.312 569.464 337.176 569.464ZM361.015 582.28C359.455 582.28 357.895 582.052 356.335 581.596C354.799 581.14 353.551 580.552 352.591 579.832L354.607 575.8C355.111 576.136 355.663 576.424 356.263 576.664C356.887 576.928 357.535 577.132 358.207 577.276C358.879 577.42 359.563 577.492 360.259 577.492C361.483 577.492 362.479 577.312 363.247 576.952C364.015 576.592 364.591 576.04 364.975 575.296C365.359 574.576 365.551 573.664 365.551 572.56V569.356L366.667 569.536C366.499 570.328 366.079 571.048 365.407 571.696C364.759 572.344 363.955 572.872 362.995 573.28C362.035 573.664 361.015 573.856 359.935 573.856C358.207 573.856 356.659 573.46 355.291 572.668C353.947 571.852 352.879 570.736 352.087 569.32C351.319 567.88 350.935 566.224 350.935 564.352C350.935 562.432 351.319 560.74 352.087 559.276C352.855 557.788 353.911 556.624 355.255 555.784C356.599 554.92 358.111 554.488 359.791 554.488C360.511 554.488 361.195 554.572 361.843 554.74C362.515 554.908 363.127 555.136 363.679 555.424C364.255 555.688 364.759 556.012 365.191 556.396C365.647 556.756 366.007 557.152 366.271 557.584C366.559 558.016 366.751 558.46 366.847 558.916L365.659 559.204L365.875 554.884H371.347V572.452C371.347 574.012 371.107 575.392 370.627 576.592C370.171 577.816 369.487 578.848 368.575 579.688C367.687 580.552 366.607 581.2 365.335 581.632C364.063 582.064 362.623 582.28 361.015 582.28ZM361.159 569.392C362.095 569.392 362.899 569.188 363.571 568.78C364.267 568.348 364.795 567.76 365.155 567.016C365.539 566.272 365.731 565.396 365.731 564.388C365.731 563.38 365.539 562.504 365.155 561.76C364.795 560.992 364.267 560.404 363.571 559.996C362.899 559.564 362.095 559.348 361.159 559.348C360.247 559.348 359.455 559.564 358.783 559.996C358.111 560.404 357.583 560.992 357.199 561.76C356.839 562.504 356.659 563.38 356.659 564.388C356.659 565.396 356.839 566.272 357.199 567.016C357.583 567.76 358.111 568.348 358.783 568.78C359.455 569.188 360.247 569.392 361.159 569.392ZM385.457 574.36C383.345 574.36 381.509 573.94 379.949 573.1C378.389 572.236 377.177 571.072 376.313 569.608C375.449 568.12 375.017 566.428 375.017 564.532C375.017 563.068 375.257 561.724 375.737 560.5C376.217 559.276 376.889 558.22 377.753 557.332C378.617 556.42 379.637 555.724 380.813 555.244C382.013 554.74 383.321 554.488 384.737 554.488C386.081 554.488 387.305 554.728 388.409 555.208C389.537 555.688 390.509 556.36 391.325 557.224C392.141 558.088 392.765 559.108 393.197 560.284C393.629 561.46 393.821 562.744 393.773 564.136L393.737 565.684H378.509L377.681 562.444H389.057L388.445 563.128V562.408C388.397 561.808 388.205 561.28 387.869 560.824C387.557 560.344 387.137 559.972 386.609 559.708C386.081 559.444 385.481 559.312 384.809 559.312C383.873 559.312 383.069 559.504 382.397 559.888C381.749 560.248 381.257 560.788 380.921 561.508C380.585 562.204 380.417 563.068 380.417 564.1C380.417 565.156 380.633 566.08 381.065 566.872C381.521 567.64 382.169 568.24 383.009 568.672C383.873 569.104 384.893 569.32 386.069 569.32C386.885 569.32 387.605 569.2 388.229 568.96C388.877 568.72 389.573 568.312 390.317 567.736L393.017 571.552C392.273 572.2 391.481 572.728 390.641 573.136C389.801 573.544 388.937 573.844 388.049 574.036C387.185 574.252 386.321 574.36 385.457 574.36ZM403.887 574.36C402.015 574.36 400.359 574.06 398.919 573.46C397.503 572.86 396.375 572.056 395.535 571.048L399.027 568.024C399.771 568.768 400.611 569.32 401.547 569.68C402.483 570.016 403.371 570.184 404.211 570.184C404.547 570.184 404.847 570.148 405.111 570.076C405.375 570.004 405.591 569.908 405.759 569.788C405.951 569.644 406.095 569.488 406.191 569.32C406.287 569.128 406.335 568.912 406.335 568.672C406.335 568.192 406.119 567.82 405.687 567.556C405.471 567.436 405.111 567.292 404.607 567.124C404.103 566.956 403.455 566.764 402.663 566.548C401.535 566.26 400.551 565.924 399.711 565.54C398.895 565.132 398.223 564.664 397.695 564.136C397.215 563.632 396.843 563.08 396.579 562.48C396.315 561.856 396.183 561.16 396.183 560.392C396.183 559.504 396.387 558.7 396.795 557.98C397.227 557.26 397.791 556.636 398.487 556.108C399.207 555.58 400.023 555.184 400.935 554.92C401.871 554.632 402.831 554.488 403.815 554.488C404.871 554.488 405.879 554.608 406.839 554.848C407.799 555.088 408.687 555.424 409.503 555.856C410.343 556.288 411.087 556.804 411.735 557.404L408.711 560.788C408.279 560.38 407.787 560.02 407.235 559.708C406.707 559.372 406.155 559.108 405.579 558.916C405.003 558.724 404.475 558.628 403.995 558.628C403.635 558.628 403.311 558.664 403.023 558.736C402.759 558.784 402.531 558.88 402.339 559.024C402.147 559.144 402.003 559.3 401.907 559.492C401.811 559.66 401.763 559.864 401.763 560.104C401.763 560.344 401.823 560.572 401.943 560.788C402.087 561.004 402.279 561.184 402.519 561.328C402.759 561.472 403.143 561.64 403.671 561.832C404.199 562 404.919 562.216 405.831 562.48C406.959 562.792 407.931 563.14 408.747 563.524C409.563 563.908 410.211 564.364 410.691 564.892C411.075 565.3 411.363 565.78 411.555 566.332C411.747 566.86 411.843 567.436 411.843 568.06C411.843 569.284 411.495 570.376 410.799 571.336C410.127 572.272 409.191 573.016 407.991 573.568C406.791 574.096 405.423 574.36 403.887 574.36Z" fill="#939090"/>
<path d="M162.96 621V607H164.9L173.46 618.46L173.14 618.64C173.087 618.307 173.04 617.947 173 617.56C172.96 617.16 172.92 616.74 172.88 616.3C172.853 615.847 172.827 615.373 172.8 614.88C172.787 614.373 172.773 613.847 172.76 613.3C172.747 612.753 172.74 612.187 172.74 611.6V607H174.9V621H172.92L164.5 609.96L164.72 609.68C164.787 610.493 164.84 611.187 164.88 611.76C164.933 612.32 164.973 612.8 165 613.2C165.04 613.587 165.067 613.907 165.08 614.16C165.093 614.4 165.1 614.6 165.1 614.76C165.113 614.92 165.12 615.06 165.12 615.18V621H162.96ZM183.019 621.2C181.993 621.2 181.073 620.967 180.259 620.5C179.459 620.02 178.826 619.373 178.359 618.56C177.893 617.733 177.659 616.793 177.659 615.74C177.659 614.687 177.893 613.753 178.359 612.94C178.826 612.113 179.459 611.467 180.259 611C181.073 610.52 181.993 610.28 183.019 610.28C184.033 610.28 184.939 610.52 185.739 611C186.553 611.467 187.193 612.113 187.659 612.94C188.126 613.753 188.359 614.687 188.359 615.74C188.359 616.793 188.126 617.733 187.659 618.56C187.193 619.373 186.553 620.02 185.739 620.5C184.939 620.967 184.033 621.2 183.019 621.2ZM183.019 619.32C183.646 619.32 184.206 619.167 184.699 618.86C185.193 618.54 185.579 618.113 185.859 617.58C186.139 617.033 186.273 616.42 186.259 615.74C186.273 615.047 186.139 614.433 185.859 613.9C185.579 613.353 185.193 612.927 184.699 612.62C184.206 612.313 183.646 612.16 183.019 612.16C182.393 612.16 181.826 612.32 181.319 612.64C180.826 612.947 180.439 613.373 180.159 613.92C179.879 614.453 179.746 615.06 179.759 615.74C179.746 616.42 179.879 617.033 180.159 617.58C180.439 618.113 180.826 618.54 181.319 618.86C181.826 619.167 182.393 619.32 183.019 619.32ZM196.73 621V607H198.85L203.95 615.3L202.93 615.28L208.09 607H210.09V621H207.93V615.26C207.93 614.06 207.956 612.98 208.01 612.02C208.076 611.06 208.183 610.107 208.33 609.16L208.61 609.9L204.03 616.98H202.71L198.27 609.98L198.49 609.16C198.636 610.053 198.736 610.973 198.79 611.92C198.856 612.853 198.89 613.967 198.89 615.26V621H196.73ZM218.395 621.2C217.315 621.2 216.355 620.973 215.515 620.52C214.688 620.053 214.035 619.42 213.555 618.62C213.088 617.82 212.855 616.9 212.855 615.86C212.855 615.033 212.988 614.28 213.255 613.6C213.521 612.92 213.888 612.333 214.355 611.84C214.835 611.333 215.401 610.947 216.055 610.68C216.721 610.4 217.441 610.26 218.215 610.26C218.895 610.26 219.528 610.393 220.115 610.66C220.701 610.913 221.208 611.267 221.635 611.72C222.075 612.173 222.408 612.713 222.635 613.34C222.875 613.953 222.988 614.627 222.975 615.36L222.955 616.24H214.375L213.915 614.6H221.175L220.875 614.94V614.46C220.835 614.02 220.688 613.627 220.435 613.28C220.181 612.933 219.861 612.66 219.475 612.46C219.088 612.26 218.668 612.16 218.215 612.16C217.495 612.16 216.888 612.3 216.395 612.58C215.901 612.847 215.528 613.247 215.275 613.78C215.021 614.3 214.895 614.947 214.895 615.72C214.895 616.453 215.048 617.093 215.355 617.64C215.661 618.173 216.095 618.587 216.655 618.88C217.215 619.173 217.861 619.32 218.595 619.32C219.115 619.32 219.595 619.233 220.035 619.06C220.488 618.887 220.975 618.573 221.495 618.12L222.535 619.58C222.215 619.9 221.821 620.18 221.355 620.42C220.901 620.66 220.415 620.853 219.895 621C219.388 621.133 218.888 621.2 218.395 621.2ZM228.713 621.2C227.833 621.2 227.04 621.047 226.333 620.74C225.627 620.433 225.04 619.98 224.573 619.38L225.973 618.18C226.373 618.647 226.807 618.987 227.273 619.2C227.753 619.4 228.293 619.5 228.893 619.5C229.133 619.5 229.353 619.473 229.553 619.42C229.767 619.353 229.947 619.26 230.093 619.14C230.253 619.02 230.373 618.88 230.453 618.72C230.533 618.547 230.573 618.36 230.573 618.16C230.573 617.813 230.447 617.533 230.193 617.32C230.06 617.227 229.847 617.127 229.553 617.02C229.273 616.9 228.907 616.78 228.453 616.66C227.68 616.46 227.047 616.233 226.553 615.98C226.06 615.727 225.68 615.44 225.413 615.12C225.213 614.867 225.067 614.593 224.973 614.3C224.88 613.993 224.833 613.66 224.833 613.3C224.833 612.86 224.927 612.46 225.113 612.1C225.313 611.727 225.58 611.407 225.913 611.14C226.26 610.86 226.66 610.647 227.113 610.5C227.58 610.353 228.073 610.28 228.593 610.28C229.087 610.28 229.573 610.347 230.053 610.48C230.547 610.613 231 610.807 231.413 611.06C231.827 611.313 232.173 611.613 232.453 611.96L231.273 613.26C231.02 613.007 230.74 612.787 230.433 612.6C230.14 612.4 229.84 612.247 229.533 612.14C229.227 612.033 228.947 611.98 228.693 611.98C228.413 611.98 228.16 612.007 227.933 612.06C227.707 612.113 227.513 612.193 227.353 612.3C227.207 612.407 227.093 612.54 227.013 612.7C226.933 612.86 226.893 613.04 226.893 613.24C226.907 613.413 226.947 613.58 227.013 613.74C227.093 613.887 227.2 614.013 227.333 614.12C227.48 614.227 227.7 614.34 227.993 614.46C228.287 614.58 228.66 614.693 229.113 614.8C229.78 614.973 230.327 615.167 230.753 615.38C231.193 615.58 231.54 615.813 231.793 616.08C232.06 616.333 232.247 616.627 232.353 616.96C232.46 617.293 232.513 617.667 232.513 618.08C232.513 618.68 232.34 619.22 231.993 619.7C231.66 620.167 231.207 620.533 230.633 620.8C230.06 621.067 229.42 621.2 228.713 621.2ZM238.284 621.2C237.404 621.2 236.61 621.047 235.904 620.74C235.197 620.433 234.61 619.98 234.144 619.38L235.544 618.18C235.944 618.647 236.377 618.987 236.844 619.2C237.324 619.4 237.864 619.5 238.464 619.5C238.704 619.5 238.924 619.473 239.124 619.42C239.337 619.353 239.517 619.26 239.664 619.14C239.824 619.02 239.944 618.88 240.024 618.72C240.104 618.547 240.144 618.36 240.144 618.16C240.144 617.813 240.017 617.533 239.764 617.32C239.63 617.227 239.417 617.127 239.124 617.02C238.844 616.9 238.477 616.78 238.024 616.66C237.25 616.46 236.617 616.233 236.124 615.98C235.63 615.727 235.25 615.44 234.984 615.12C234.784 614.867 234.637 614.593 234.544 614.3C234.45 613.993 234.404 613.66 234.404 613.3C234.404 612.86 234.497 612.46 234.684 612.1C234.884 611.727 235.15 611.407 235.484 611.14C235.83 610.86 236.23 610.647 236.684 610.5C237.15 610.353 237.644 610.28 238.164 610.28C238.657 610.28 239.144 610.347 239.624 610.48C240.117 610.613 240.57 610.807 240.984 611.06C241.397 611.313 241.744 611.613 242.024 611.96L240.844 613.26C240.59 613.007 240.31 612.787 240.004 612.6C239.71 612.4 239.41 612.247 239.104 612.14C238.797 612.033 238.517 611.98 238.264 611.98C237.984 611.98 237.73 612.007 237.504 612.06C237.277 612.113 237.084 612.193 236.924 612.3C236.777 612.407 236.664 612.54 236.584 612.7C236.504 612.86 236.464 613.04 236.464 613.24C236.477 613.413 236.517 613.58 236.584 613.74C236.664 613.887 236.77 614.013 236.904 614.12C237.05 614.227 237.27 614.34 237.564 614.46C237.857 614.58 238.23 614.693 238.684 614.8C239.35 614.973 239.897 615.167 240.324 615.38C240.764 615.58 241.11 615.813 241.364 616.08C241.63 616.333 241.817 616.627 241.924 616.96C242.03 617.293 242.084 617.667 242.084 618.08C242.084 618.68 241.91 619.22 241.564 619.7C241.23 620.167 240.777 620.533 240.204 620.8C239.63 621.067 238.99 621.2 238.284 621.2ZM248.394 621.2C247.527 621.2 246.734 620.96 246.014 620.48C245.307 620 244.741 619.347 244.314 618.52C243.887 617.693 243.674 616.76 243.674 615.72C243.674 614.667 243.887 613.733 244.314 612.92C244.754 612.093 245.341 611.447 246.074 610.98C246.821 610.513 247.654 610.28 248.574 610.28C249.121 610.28 249.621 610.36 250.074 610.52C250.527 610.68 250.921 610.907 251.254 611.2C251.601 611.48 251.881 611.807 252.094 612.18C252.321 612.553 252.461 612.953 252.514 613.38L252.054 613.22V610.5H254.134V621H252.054V618.5L252.534 618.36C252.454 618.72 252.287 619.073 252.034 619.42C251.794 619.753 251.481 620.053 251.094 620.32C250.721 620.587 250.301 620.8 249.834 620.96C249.381 621.12 248.901 621.2 248.394 621.2ZM248.934 619.3C249.561 619.3 250.114 619.147 250.594 618.84C251.074 618.533 251.447 618.113 251.714 617.58C251.994 617.033 252.134 616.413 252.134 615.72C252.134 615.04 251.994 614.433 251.714 613.9C251.447 613.367 251.074 612.947 250.594 612.64C250.114 612.333 249.561 612.18 248.934 612.18C248.321 612.18 247.774 612.333 247.294 612.64C246.827 612.947 246.454 613.367 246.174 613.9C245.907 614.433 245.774 615.04 245.774 615.72C245.774 616.413 245.907 617.033 246.174 617.58C246.454 618.113 246.827 618.533 247.294 618.84C247.774 619.147 248.321 619.3 248.934 619.3ZM261.71 625.6C260.964 625.6 260.217 625.48 259.47 625.24C258.737 625.013 258.144 624.713 257.69 624.34L258.45 622.74C258.717 622.94 259.03 623.113 259.39 623.26C259.75 623.42 260.13 623.54 260.53 623.62C260.93 623.713 261.324 623.76 261.71 623.76C262.444 623.76 263.057 623.64 263.55 623.4C264.044 623.16 264.417 622.807 264.67 622.34C264.924 621.873 265.05 621.293 265.05 620.6V618.58L265.27 618.72C265.204 619.133 264.984 619.533 264.61 619.92C264.25 620.293 263.797 620.6 263.25 620.84C262.704 621.08 262.144 621.2 261.57 621.2C260.57 621.2 259.677 620.967 258.89 620.5C258.117 620.02 257.504 619.373 257.05 618.56C256.597 617.733 256.37 616.793 256.37 615.74C256.37 614.687 256.59 613.753 257.03 612.94C257.484 612.113 258.097 611.467 258.87 611C259.657 610.52 260.537 610.28 261.51 610.28C261.91 610.28 262.297 610.333 262.67 610.44C263.044 610.533 263.39 610.673 263.71 610.86C264.03 611.033 264.317 611.227 264.57 611.44C264.824 611.653 265.03 611.88 265.19 612.12C265.35 612.36 265.45 612.587 265.49 612.8L265.05 612.96V610.5H267.11V620.36C267.11 621.2 266.984 621.94 266.73 622.58C266.49 623.233 266.137 623.78 265.67 624.22C265.204 624.673 264.637 625.013 263.97 625.24C263.304 625.48 262.55 625.6 261.71 625.6ZM261.79 619.3C262.444 619.3 263.024 619.147 263.53 618.84C264.037 618.533 264.43 618.113 264.71 617.58C264.99 617.047 265.13 616.433 265.13 615.74C265.13 615.047 264.984 614.433 264.69 613.9C264.41 613.353 264.017 612.927 263.51 612.62C263.017 612.313 262.444 612.16 261.79 612.16C261.15 612.16 260.577 612.32 260.07 612.64C259.577 612.947 259.184 613.373 258.89 613.92C258.61 614.453 258.47 615.06 258.47 615.74C258.47 616.42 258.61 617.033 258.89 617.58C259.184 618.113 259.577 618.533 260.07 618.84C260.577 619.147 261.15 619.3 261.79 619.3ZM274.899 621.2C273.819 621.2 272.859 620.973 272.019 620.52C271.192 620.053 270.539 619.42 270.059 618.62C269.592 617.82 269.359 616.9 269.359 615.86C269.359 615.033 269.492 614.28 269.759 613.6C270.025 612.92 270.392 612.333 270.859 611.84C271.339 611.333 271.905 610.947 272.559 610.68C273.225 610.4 273.945 610.26 274.719 610.26C275.399 610.26 276.032 610.393 276.619 610.66C277.205 610.913 277.712 611.267 278.139 611.72C278.579 612.173 278.912 612.713 279.139 613.34C279.379 613.953 279.492 614.627 279.479 615.36L279.459 616.24H270.879L270.419 614.6H277.679L277.379 614.94V614.46C277.339 614.02 277.192 613.627 276.939 613.28C276.685 612.933 276.365 612.66 275.979 612.46C275.592 612.26 275.172 612.16 274.719 612.16C273.999 612.16 273.392 612.3 272.899 612.58C272.405 612.847 272.032 613.247 271.779 613.78C271.525 614.3 271.399 614.947 271.399 615.72C271.399 616.453 271.552 617.093 271.859 617.64C272.165 618.173 272.599 618.587 273.159 618.88C273.719 619.173 274.365 619.32 275.099 619.32C275.619 619.32 276.099 619.233 276.539 619.06C276.992 618.887 277.479 618.573 277.999 618.12L279.039 619.58C278.719 619.9 278.325 620.18 277.859 620.42C277.405 620.66 276.919 620.853 276.399 621C275.892 621.133 275.392 621.2 274.899 621.2ZM285.217 621.2C284.337 621.2 283.544 621.047 282.837 620.74C282.131 620.433 281.544 619.98 281.077 619.38L282.477 618.18C282.877 618.647 283.311 618.987 283.777 619.2C284.257 619.4 284.797 619.5 285.397 619.5C285.637 619.5 285.857 619.473 286.057 619.42C286.271 619.353 286.451 619.26 286.597 619.14C286.757 619.02 286.877 618.88 286.957 618.72C287.037 618.547 287.077 618.36 287.077 618.16C287.077 617.813 286.951 617.533 286.697 617.32C286.564 617.227 286.351 617.127 286.057 617.02C285.777 616.9 285.411 616.78 284.957 616.66C284.184 616.46 283.551 616.233 283.057 615.98C282.564 615.727 282.184 615.44 281.917 615.12C281.717 614.867 281.571 614.593 281.477 614.3C281.384 613.993 281.337 613.66 281.337 613.3C281.337 612.86 281.431 612.46 281.617 612.1C281.817 611.727 282.084 611.407 282.417 611.14C282.764 610.86 283.164 610.647 283.617 610.5C284.084 610.353 284.577 610.28 285.097 610.28C285.591 610.28 286.077 610.347 286.557 610.48C287.051 610.613 287.504 610.807 287.917 611.06C288.331 611.313 288.677 611.613 288.957 611.96L287.777 613.26C287.524 613.007 287.244 612.787 286.937 612.6C286.644 612.4 286.344 612.247 286.037 612.14C285.731 612.033 285.451 611.98 285.197 611.98C284.917 611.98 284.664 612.007 284.437 612.06C284.211 612.113 284.017 612.193 283.857 612.3C283.711 612.407 283.597 612.54 283.517 612.7C283.437 612.86 283.397 613.04 283.397 613.24C283.411 613.413 283.451 613.58 283.517 613.74C283.597 613.887 283.704 614.013 283.837 614.12C283.984 614.227 284.204 614.34 284.497 614.46C284.791 614.58 285.164 614.693 285.617 614.8C286.284 614.973 286.831 615.167 287.257 615.38C287.697 615.58 288.044 615.813 288.297 616.08C288.564 616.333 288.751 616.627 288.857 616.96C288.964 617.293 289.017 617.667 289.017 618.08C289.017 618.68 288.844 619.22 288.497 619.7C288.164 620.167 287.711 620.533 287.137 620.8C286.564 621.067 285.924 621.2 285.217 621.2ZM297.233 621V610.5H299.293V621H297.233ZM298.233 608.18C297.793 608.18 297.453 608.067 297.213 607.84C296.973 607.613 296.853 607.293 296.853 606.88C296.853 606.493 296.973 606.18 297.213 605.94C297.466 605.7 297.806 605.58 298.233 605.58C298.673 605.58 299.013 605.693 299.253 605.92C299.493 606.147 299.613 606.467 299.613 606.88C299.613 607.267 299.486 607.58 299.233 607.82C298.993 608.06 298.66 608.18 298.233 608.18ZM302.46 621V610.5H304.52V612.66L304.16 612.9C304.293 612.433 304.553 612.007 304.94 611.62C305.326 611.22 305.786 610.9 306.32 610.66C306.853 610.407 307.4 610.28 307.96 610.28C308.76 610.28 309.426 610.44 309.96 610.76C310.493 611.067 310.893 611.54 311.16 612.18C311.426 612.82 311.56 613.627 311.56 614.6V621H309.5V614.74C309.5 614.14 309.42 613.647 309.26 613.26C309.1 612.86 308.853 612.573 308.52 612.4C308.186 612.213 307.773 612.133 307.28 612.16C306.88 612.16 306.513 612.227 306.18 612.36C305.846 612.48 305.553 612.653 305.3 612.88C305.06 613.107 304.866 613.373 304.72 613.68C304.586 613.973 304.52 614.293 304.52 614.64V621H303.5C303.326 621 303.153 621 302.98 621C302.806 621 302.633 621 302.46 621ZM321.72 625.6L323.84 620.7L323.86 622.34L318.62 610.5H321.02L324.3 618.22C324.366 618.353 324.446 618.56 324.54 618.84C324.633 619.107 324.713 619.373 324.78 619.64L324.26 619.76C324.366 619.48 324.466 619.2 324.56 618.92C324.666 618.64 324.766 618.36 324.86 618.08L327.6 610.5H330.04L325.72 621L323.94 625.6H321.72ZM336.105 621.2C335.079 621.2 334.159 620.967 333.345 620.5C332.545 620.02 331.912 619.373 331.445 618.56C330.979 617.733 330.745 616.793 330.745 615.74C330.745 614.687 330.979 613.753 331.445 612.94C331.912 612.113 332.545 611.467 333.345 611C334.159 610.52 335.079 610.28 336.105 610.28C337.119 610.28 338.025 610.52 338.825 611C339.639 611.467 340.279 612.113 340.745 612.94C341.212 613.753 341.445 614.687 341.445 615.74C341.445 616.793 341.212 617.733 340.745 618.56C340.279 619.373 339.639 620.02 338.825 620.5C338.025 620.967 337.119 621.2 336.105 621.2ZM336.105 619.32C336.732 619.32 337.292 619.167 337.785 618.86C338.279 618.54 338.665 618.113 338.945 617.58C339.225 617.033 339.359 616.42 339.345 615.74C339.359 615.047 339.225 614.433 338.945 613.9C338.665 613.353 338.279 612.927 337.785 612.62C337.292 612.313 336.732 612.16 336.105 612.16C335.479 612.16 334.912 612.32 334.405 612.64C333.912 612.947 333.525 613.373 333.245 613.92C332.965 614.453 332.832 615.06 332.845 615.74C332.832 616.42 332.965 617.033 333.245 617.58C333.525 618.113 333.912 618.54 334.405 618.86C334.912 619.167 335.479 619.32 336.105 619.32ZM347.37 621.2C346.623 621.2 345.97 621.027 345.41 620.68C344.863 620.333 344.437 619.847 344.13 619.22C343.837 618.593 343.69 617.847 343.69 616.98V610.5H345.75V616.42C345.75 617.033 345.843 617.567 346.03 618.02C346.23 618.46 346.51 618.8 346.87 619.04C347.243 619.28 347.69 619.4 348.21 619.4C348.597 619.4 348.95 619.34 349.27 619.22C349.59 619.087 349.863 618.907 350.09 618.68C350.33 618.453 350.517 618.18 350.65 617.86C350.783 617.54 350.85 617.193 350.85 616.82V610.5H352.91V621H350.85V618.8L351.21 618.56C351.05 619.053 350.777 619.5 350.39 619.9C350.017 620.3 349.57 620.62 349.05 620.86C348.53 621.087 347.97 621.2 347.37 621.2ZM355.799 621V610.5H357.879V613.8L357.679 613C357.826 612.493 358.073 612.033 358.419 611.62C358.779 611.207 359.186 610.88 359.639 610.64C360.106 610.4 360.586 610.28 361.079 610.28C361.306 610.28 361.519 610.3 361.719 610.34C361.933 610.38 362.099 610.427 362.219 610.48L361.679 612.72C361.519 612.653 361.339 612.6 361.139 612.56C360.953 612.507 360.766 612.48 360.579 612.48C360.219 612.48 359.873 612.553 359.539 612.7C359.219 612.833 358.933 613.027 358.679 613.28C358.439 613.52 358.246 613.807 358.099 614.14C357.953 614.46 357.879 614.813 357.879 615.2V621H355.799ZM369.471 621V619H371.731V609H369.471V607H376.151V609H373.891V619H376.151V621H369.471ZM379.022 621V610.5H381.082V612.66L380.722 612.9C380.855 612.433 381.115 612.007 381.502 611.62C381.889 611.22 382.349 610.9 382.882 610.66C383.415 610.407 383.962 610.28 384.522 610.28C385.322 610.28 385.989 610.44 386.522 610.76C387.055 611.067 387.455 611.54 387.722 612.18C387.989 612.82 388.122 613.627 388.122 614.6V621H386.062V614.74C386.062 614.14 385.982 613.647 385.822 613.26C385.662 612.86 385.415 612.573 385.082 612.4C384.749 612.213 384.335 612.133 383.842 612.16C383.442 612.16 383.075 612.227 382.742 612.36C382.409 612.48 382.115 612.653 381.862 612.88C381.622 613.107 381.429 613.373 381.282 613.68C381.149 613.973 381.082 614.293 381.082 614.64V621H380.062C379.889 621 379.715 621 379.542 621C379.369 621 379.195 621 379.022 621ZM396.437 621.2C395.983 621.2 395.53 621.127 395.077 620.98C394.637 620.833 394.23 620.64 393.857 620.4C393.497 620.147 393.19 619.873 392.937 619.58C392.697 619.273 392.537 618.967 392.457 618.66L392.977 618.38V620.94H390.917V606.2H392.977V612.9L392.657 612.72C392.723 612.413 392.87 612.12 393.097 611.84C393.323 611.547 393.61 611.287 393.957 611.06C394.317 610.82 394.703 610.633 395.117 610.5C395.53 610.353 395.95 610.28 396.377 610.28C397.323 610.28 398.163 610.513 398.897 610.98C399.63 611.447 400.21 612.093 400.637 612.92C401.063 613.733 401.277 614.667 401.277 615.72C401.277 616.773 401.063 617.713 400.637 618.54C400.223 619.367 399.65 620.02 398.917 620.5C398.183 620.967 397.357 621.2 396.437 621.2ZM396.097 619.32C396.71 619.32 397.257 619.167 397.737 618.86C398.217 618.54 398.597 618.113 398.877 617.58C399.157 617.033 399.297 616.413 399.297 615.72C399.297 615.04 399.157 614.433 398.877 613.9C398.61 613.353 398.237 612.927 397.757 612.62C397.277 612.313 396.723 612.16 396.097 612.16C395.47 612.16 394.917 612.313 394.437 612.62C393.957 612.927 393.577 613.353 393.297 613.9C393.017 614.433 392.877 615.04 392.877 615.72C392.877 616.413 393.017 617.033 393.297 617.58C393.577 618.113 393.957 618.54 394.437 618.86C394.917 619.167 395.47 619.32 396.097 619.32ZM408.234 621.2C407.208 621.2 406.288 620.967 405.474 620.5C404.674 620.02 404.041 619.373 403.574 618.56C403.108 617.733 402.874 616.793 402.874 615.74C402.874 614.687 403.108 613.753 403.574 612.94C404.041 612.113 404.674 611.467 405.474 611C406.288 610.52 407.208 610.28 408.234 610.28C409.248 610.28 410.154 610.52 410.954 611C411.768 611.467 412.408 612.113 412.874 612.94C413.341 613.753 413.574 614.687 413.574 615.74C413.574 616.793 413.341 617.733 412.874 618.56C412.408 619.373 411.768 620.02 410.954 620.5C410.154 620.967 409.248 621.2 408.234 621.2ZM408.234 619.32C408.861 619.32 409.421 619.167 409.914 618.86C410.408 618.54 410.794 618.113 411.074 617.58C411.354 617.033 411.488 616.42 411.474 615.74C411.488 615.047 411.354 614.433 411.074 613.9C410.794 613.353 410.408 612.927 409.914 612.62C409.421 612.313 408.861 612.16 408.234 612.16C407.608 612.16 407.041 612.32 406.534 612.64C406.041 612.947 405.654 613.373 405.374 613.92C405.094 614.453 404.961 615.06 404.974 615.74C404.961 616.42 405.094 617.033 405.374 617.58C405.654 618.113 406.041 618.54 406.534 618.86C407.041 619.167 407.608 619.32 408.234 619.32ZM422.408 621L419.008 616.58L418.708 616.2L414.288 610.5H416.888L420.228 614.86L420.568 615.3L424.928 621H422.408ZM414.308 621L418.448 615.6L419.668 617.06L416.748 621H414.308ZM420.688 615.92L419.548 614.48L422.128 610.5H424.568L420.688 615.92Z" fill="#A0A0A0"/>
</svg>
