<svg width="588" height="743" viewBox="0 0 588 743" fill="none" xmlns="http://www.w3.org/2000/svg">
<path d="M145.351 352.32C147.22 352.32 148.734 350.806 148.734 348.939C148.734 347.072 147.22 345.558 145.351 345.558C143.483 345.558 141.969 347.072 141.969 348.939C141.969 350.806 143.483 352.32 145.351 352.32Z" fill="#CFCFCF"/>
<path d="M364.708 211.019C335.817 211.019 306.408 209.846 278.898 202.188C251.906 194.702 227.122 180.179 205.031 163.379C190.569 152.443 177.418 143.715 158.64 145.026C140.271 146.02 122.704 152.875 108.521 164.586C84.6356 185.491 88.2254 224.232 97.7867 251.346C112.146 292.295 155.845 320.824 192.985 339.28C235.89 360.702 283.04 373.156 330.294 380.297C371.715 386.61 424.94 391.163 460.838 364.152C493.802 339.28 502.846 282.566 494.769 244.275C492.809 232.962 486.782 222.755 477.821 215.573C454.66 198.635 420.108 209.95 394.082 210.502C384.417 210.709 374.58 210.95 364.708 211.019Z" fill="#F2F2F2"/>
<path d="M304.545 384.574C326.068 384.574 343.515 367.137 343.515 345.627C343.515 324.117 326.068 306.68 304.545 306.68C283.023 306.68 265.575 324.117 265.575 345.627C265.575 367.137 283.023 384.574 304.545 384.574Z" fill="#D2D2D2"/>
<path d="M264.276 102.478C266.431 101.998 268.659 101.946 270.833 102.327C273.008 102.707 275.086 103.512 276.949 104.695C278.812 105.878 280.424 107.417 281.693 109.222C282.961 111.028 283.861 113.066 284.341 115.219L290.569 143.132L257.688 150.459L251.46 122.547C250.978 120.387 250.928 118.155 251.312 115.976C251.696 113.798 252.507 111.716 253.697 109.852C254.888 107.987 256.435 106.376 258.251 105.11C260.066 103.845 262.114 102.95 264.276 102.478Z" fill="white" stroke="#BABABA" stroke-linecap="round" stroke-linejoin="round"/>
<path d="M417.899 321.445L218.079 365.946C216.838 366.224 215.546 366.175 214.33 365.802C213.114 365.429 212.016 364.745 211.145 363.819C210.274 362.892 209.659 361.755 209.362 360.519C209.065 359.283 209.095 357.991 209.45 356.77L210.278 353.907C217.182 329.448 223.188 302.506 217.665 277.668L205.86 224.68C195.919 180.144 222.636 134.781 266.956 123.845C277.763 121.164 288.998 120.67 299.999 122.393C311 124.116 321.545 128.02 331.014 133.877C340.482 139.733 348.683 147.424 355.134 156.495C361.584 165.567 366.154 175.836 368.574 186.699L380.759 241.48C386.316 266.318 403.091 288.259 419.867 307.37L421.834 309.612C422.631 310.573 423.17 311.72 423.4 312.946C423.63 314.171 423.545 315.436 423.151 316.619C422.757 317.803 422.069 318.867 421.15 319.711C420.231 320.556 419.112 321.152 417.899 321.445Z" fill="white" stroke="#BABABA" stroke-linecap="round" stroke-linejoin="round"/>
<path d="M270.097 287.293C270.042 279.235 272.751 271.402 277.772 265.098C282.793 258.793 289.823 254.398 297.692 252.644C305.561 250.889 313.793 251.882 321.019 255.456C328.245 259.03 334.028 264.97 337.405 272.286" stroke="#BABABA" stroke-linecap="round" stroke-linejoin="round"/>
<path d="M331.744 231.304C334.451 231.304 336.646 229.11 336.646 226.405C336.646 223.7 334.451 221.506 331.744 221.506C329.037 221.506 326.843 223.7 326.843 226.405C326.843 229.11 329.037 231.304 331.744 231.304Z" fill="#BABABA"/>
<path d="M255.737 248.242C258.444 248.242 260.639 246.048 260.639 243.343C260.639 240.638 258.444 238.444 255.737 238.444C253.03 238.444 250.836 240.638 250.836 243.343C250.836 246.048 253.03 248.242 255.737 248.242Z" fill="#BABABA"/>
<path d="M347.14 97.282C349.008 97.282 350.522 95.7684 350.522 93.9012C350.522 92.0341 349.008 90.5205 347.14 90.5205C345.271 90.5205 343.757 92.0341 343.757 93.9012C343.757 95.7684 345.271 97.282 347.14 97.282Z" fill="#CFCFCF"/>
<path d="M145.351 352.32C147.22 352.32 148.734 350.806 148.734 348.939C148.734 347.072 147.22 345.558 145.351 345.558C143.483 345.558 141.969 347.072 141.969 348.939C141.969 350.806 143.483 352.32 145.351 352.32Z" fill="#CFCFCF"/>
<path d="M440.611 175.556V190.39" stroke="#BABABA" stroke-linecap="round" stroke-linejoin="round"/>
<path d="M433.19 182.973H448.033" stroke="#BABABA" stroke-linecap="round" stroke-linejoin="round"/>
<path d="M447.377 398.891V413.724" stroke="#BABABA" stroke-linecap="round" stroke-linejoin="round"/>
<path d="M439.956 406.308H454.798" stroke="#BABABA" stroke-linecap="round" stroke-linejoin="round"/>
<path d="M187.877 119.326V134.159" stroke="#BABABA" stroke-linecap="round" stroke-linejoin="round"/>
<path d="M180.456 126.743H195.298" stroke="#BABABA" stroke-linecap="round" stroke-linejoin="round"/>
<path d="M295.398 447.428C365.379 447.428 422.111 443.891 422.111 439.528C422.111 435.165 365.379 431.628 295.398 431.628C225.417 431.628 168.686 435.165 168.686 439.528C168.686 443.891 225.417 447.428 295.398 447.428Z" fill="#F2F2F2"/>
<path d="M416.45 167.139C416.441 177.63 412.267 187.689 404.844 195.107C397.421 202.526 387.356 206.698 376.859 206.707C375.567 206.707 374.277 206.638 372.993 206.5L361.257 225.646L357.598 201.67C351.501 198.277 346.409 193.333 342.839 187.34C339.269 181.347 337.348 174.517 337.27 167.543C337.192 160.568 338.96 153.697 342.395 147.626C345.83 141.554 350.809 136.498 356.829 132.969C362.849 129.44 369.695 127.565 376.674 127.532C383.653 127.5 390.516 129.311 396.569 132.784C402.621 136.256 407.648 141.265 411.139 147.305C414.631 153.344 416.463 160.198 416.45 167.173V167.139Z" fill="white" stroke="#BABABA" stroke-linecap="round" stroke-linejoin="round"/>
<path d="M359.945 171.141C362.157 171.141 363.949 169.349 363.949 167.139C363.949 164.929 362.157 163.137 359.945 163.137C357.734 163.137 355.941 164.929 355.941 167.139C355.941 169.349 357.734 171.141 359.945 171.141Z" fill="#D2D2D2" stroke="#D2D2D2" stroke-miterlimit="10"/>
<path d="M376.858 171.141C379.07 171.141 380.862 169.349 380.862 167.139C380.862 164.929 379.07 163.137 376.858 163.137C374.647 163.137 372.854 164.929 372.854 167.139C372.854 169.349 374.647 171.141 376.858 171.141Z" fill="#D2D2D2" stroke="#D2D2D2" stroke-miterlimit="10"/>
<path d="M393.772 171.141C395.983 171.141 397.776 169.349 397.776 167.139C397.776 164.929 395.983 163.137 393.772 163.137C391.56 163.137 389.768 164.929 389.768 167.139C389.768 169.349 391.56 171.141 393.772 171.141Z" fill="#D2D2D2" stroke="#D2D2D2" stroke-miterlimit="10"/>
<path d="M166.168 595V569.8H171.64L184.852 587.8L183.664 587.62C183.544 586.828 183.448 586.072 183.376 585.352C183.304 584.632 183.232 583.924 183.16 583.228C183.112 582.532 183.064 581.824 183.016 581.104C182.992 580.384 182.968 579.604 182.944 578.764C182.944 577.924 182.944 577.012 182.944 576.028V569.8H188.884V595H183.34L169.552 576.424L171.388 576.676C171.508 577.828 171.604 578.812 171.676 579.628C171.772 580.42 171.844 581.128 171.892 581.752C171.964 582.376 172.012 582.94 172.036 583.444C172.06 583.948 172.072 584.452 172.072 584.956C172.096 585.436 172.108 585.976 172.108 586.576V595H166.168ZM203.595 595.36C201.603 595.36 199.827 594.928 198.267 594.064C196.731 593.2 195.507 592.024 194.595 590.536C193.707 589.048 193.263 587.344 193.263 585.424C193.263 583.504 193.707 581.8 194.595 580.312C195.507 578.824 196.731 577.648 198.267 576.784C199.827 575.92 201.603 575.488 203.595 575.488C205.587 575.488 207.351 575.92 208.887 576.784C210.447 577.648 211.671 578.824 212.559 580.312C213.447 581.8 213.891 583.504 213.891 585.424C213.891 587.344 213.447 589.048 212.559 590.536C211.671 592.024 210.447 593.2 208.887 594.064C207.351 594.928 205.587 595.36 203.595 595.36ZM203.595 590.392C204.459 590.392 205.227 590.176 205.899 589.744C206.571 589.312 207.099 588.724 207.483 587.98C207.867 587.236 208.047 586.384 208.023 585.424C208.047 584.464 207.867 583.612 207.483 582.868C207.099 582.1 206.571 581.5 205.899 581.068C205.227 580.636 204.459 580.42 203.595 580.42C202.731 580.42 201.951 580.636 201.255 581.068C200.583 581.5 200.055 582.1 199.671 582.868C199.287 583.612 199.107 584.464 199.131 585.424C199.107 586.384 199.287 587.236 199.671 587.98C200.055 588.724 200.583 589.312 201.255 589.744C201.951 590.176 202.731 590.392 203.595 590.392ZM229.801 595V569.8H235.273L248.485 587.8L247.297 587.62C247.177 586.828 247.081 586.072 247.009 585.352C246.937 584.632 246.865 583.924 246.793 583.228C246.745 582.532 246.697 581.824 246.649 581.104C246.625 580.384 246.601 579.604 246.577 578.764C246.577 577.924 246.577 577.012 246.577 576.028V569.8H252.517V595H246.973L233.185 576.424L235.021 576.676C235.141 577.828 235.237 578.812 235.309 579.628C235.405 580.42 235.477 581.128 235.525 581.752C235.597 582.376 235.645 582.94 235.669 583.444C235.693 583.948 235.705 584.452 235.705 584.956C235.729 585.436 235.741 585.976 235.741 586.576V595H229.801ZM267.228 595.36C265.236 595.36 263.46 594.928 261.9 594.064C260.364 593.2 259.14 592.024 258.228 590.536C257.34 589.048 256.896 587.344 256.896 585.424C256.896 583.504 257.34 581.8 258.228 580.312C259.14 578.824 260.364 577.648 261.9 576.784C263.46 575.92 265.236 575.488 267.228 575.488C269.22 575.488 270.984 575.92 272.52 576.784C274.08 577.648 275.304 578.824 276.192 580.312C277.08 581.8 277.524 583.504 277.524 585.424C277.524 587.344 277.08 589.048 276.192 590.536C275.304 592.024 274.08 593.2 272.52 594.064C270.984 594.928 269.22 595.36 267.228 595.36ZM267.228 590.392C268.092 590.392 268.86 590.176 269.532 589.744C270.204 589.312 270.732 588.724 271.116 587.98C271.5 587.236 271.68 586.384 271.656 585.424C271.68 584.464 271.5 583.612 271.116 582.868C270.732 582.1 270.204 581.5 269.532 581.068C268.86 580.636 268.092 580.42 267.228 580.42C266.364 580.42 265.584 580.636 264.888 581.068C264.216 581.5 263.688 582.1 263.304 582.868C262.92 583.612 262.74 584.464 262.764 585.424C262.74 586.384 262.92 587.236 263.304 587.98C263.688 588.724 264.216 589.312 264.888 589.744C265.584 590.176 266.364 590.392 267.228 590.392ZM282.874 595V571.06H288.634V595H282.874ZM279.49 580.924V575.884H292.342V580.924H279.49ZM295.958 595V575.884H301.718V595H295.958ZM298.838 572.104C297.758 572.104 296.906 571.852 296.282 571.348C295.682 570.82 295.382 570.076 295.382 569.116C295.382 568.252 295.694 567.544 296.318 566.992C296.942 566.44 297.782 566.164 298.838 566.164C299.918 566.164 300.758 566.428 301.358 566.956C301.958 567.46 302.258 568.18 302.258 569.116C302.258 570.004 301.946 570.724 301.322 571.276C300.722 571.828 299.894 572.104 298.838 572.104ZM308.318 595V574.948C308.318 573.7 308.582 572.572 309.11 571.564C309.662 570.556 310.418 569.764 311.378 569.188C312.362 568.588 313.502 568.288 314.798 568.288C315.71 568.288 316.55 568.42 317.318 568.684C318.086 568.948 318.77 569.32 319.37 569.8L317.714 574.012C317.402 573.844 317.102 573.712 316.814 573.616C316.526 573.52 316.262 573.472 316.022 573.472C315.59 573.472 315.23 573.544 314.942 573.688C314.654 573.832 314.438 574.06 314.294 574.372C314.174 574.66 314.114 575.02 314.114 575.452V595H311.234C310.586 595 310.01 595 309.506 595C309.026 595 308.63 595 308.318 595ZM305.546 581.176V576.424H318.038V581.176H305.546ZM321.602 595V575.884H327.362V595H321.602ZM324.482 572.104C323.402 572.104 322.55 571.852 321.926 571.348C321.326 570.82 321.026 570.076 321.026 569.116C321.026 568.252 321.338 567.544 321.962 566.992C322.586 566.44 323.426 566.164 324.482 566.164C325.562 566.164 326.402 566.428 327.002 566.956C327.602 567.46 327.902 568.18 327.902 569.116C327.902 570.004 327.59 570.724 326.966 571.276C326.366 571.828 325.538 572.104 324.482 572.104ZM341.147 595.36C339.299 595.36 337.643 594.928 336.179 594.064C334.715 593.2 333.551 592.024 332.687 590.536C331.847 589.024 331.427 587.32 331.427 585.424C331.427 583.528 331.847 581.836 332.687 580.348C333.551 578.836 334.715 577.648 336.179 576.784C337.643 575.92 339.299 575.488 341.147 575.488C342.851 575.488 344.411 575.788 345.827 576.388C347.267 576.988 348.407 577.828 349.247 578.908L346.115 582.652C345.779 582.268 345.383 581.908 344.927 581.572C344.471 581.236 343.967 580.972 343.415 580.78C342.863 580.588 342.287 580.492 341.687 580.492C340.775 580.492 339.971 580.708 339.275 581.14C338.579 581.548 338.039 582.124 337.655 582.868C337.271 583.612 337.079 584.464 337.079 585.424C337.079 586.336 337.271 587.164 337.655 587.908C338.063 588.652 338.615 589.24 339.311 589.672C340.007 590.104 340.799 590.32 341.687 590.32C342.311 590.32 342.887 590.248 343.415 590.104C343.943 589.936 344.423 589.696 344.855 589.384C345.311 589.072 345.731 588.688 346.115 588.232L349.211 592.012C348.395 593.044 347.255 593.86 345.791 594.46C344.351 595.06 342.803 595.36 341.147 595.36ZM359.432 595.324C357.824 595.324 356.384 594.904 355.112 594.064C353.864 593.2 352.868 592.024 352.124 590.536C351.38 589.024 351.008 587.32 351.008 585.424C351.008 583.48 351.38 581.764 352.124 580.276C352.868 578.788 353.888 577.624 355.184 576.784C356.48 575.92 357.956 575.488 359.612 575.488C360.524 575.488 361.352 575.62 362.096 575.884C362.864 576.148 363.536 576.52 364.112 577C364.688 577.456 365.18 577.996 365.588 578.62C365.996 579.22 366.296 579.868 366.488 580.564L365.3 580.42V575.884H371.024V595H365.192V590.392L366.488 590.356C366.296 591.028 365.984 591.664 365.552 592.264C365.12 592.864 364.592 593.392 363.968 593.848C363.344 594.304 362.648 594.664 361.88 594.928C361.112 595.192 360.296 595.324 359.432 595.324ZM361.016 590.464C361.904 590.464 362.672 590.26 363.32 589.852C363.968 589.444 364.472 588.868 364.832 588.124C365.192 587.356 365.372 586.456 365.372 585.424C365.372 584.392 365.192 583.504 364.832 582.76C364.472 581.992 363.968 581.404 363.32 580.996C362.672 580.564 361.904 580.348 361.016 580.348C360.152 580.348 359.396 580.564 358.748 580.996C358.124 581.404 357.632 581.992 357.272 582.76C356.912 583.504 356.732 584.392 356.732 585.424C356.732 586.456 356.912 587.356 357.272 588.124C357.632 588.868 358.124 589.444 358.748 589.852C359.396 590.26 360.152 590.464 361.016 590.464ZM377.691 595V571.06H383.451V595H377.691ZM374.307 580.924V575.884H387.159V580.924H374.307ZM390.775 595V575.884H396.535V595H390.775ZM393.655 572.104C392.575 572.104 391.723 571.852 391.099 571.348C390.499 570.82 390.199 570.076 390.199 569.116C390.199 568.252 390.511 567.544 391.135 566.992C391.759 566.44 392.599 566.164 393.655 566.164C394.735 566.164 395.575 566.428 396.175 566.956C396.775 567.46 397.075 568.18 397.075 569.116C397.075 570.004 396.763 570.724 396.139 571.276C395.539 571.828 394.711 572.104 393.655 572.104ZM410.947 595.36C408.955 595.36 407.179 594.928 405.619 594.064C404.083 593.2 402.859 592.024 401.947 590.536C401.059 589.048 400.615 587.344 400.615 585.424C400.615 583.504 401.059 581.8 401.947 580.312C402.859 578.824 404.083 577.648 405.619 576.784C407.179 575.92 408.955 575.488 410.947 575.488C412.939 575.488 414.703 575.92 416.239 576.784C417.799 577.648 419.023 578.824 419.911 580.312C420.799 581.8 421.243 583.504 421.243 585.424C421.243 587.344 420.799 589.048 419.911 590.536C419.023 592.024 417.799 593.2 416.239 594.064C414.703 594.928 412.939 595.36 410.947 595.36ZM410.947 590.392C411.811 590.392 412.579 590.176 413.251 589.744C413.923 589.312 414.451 588.724 414.835 587.98C415.219 587.236 415.399 586.384 415.375 585.424C415.399 584.464 415.219 583.612 414.835 582.868C414.451 582.1 413.923 581.5 413.251 581.068C412.579 580.636 411.811 580.42 410.947 580.42C410.083 580.42 409.303 580.636 408.607 581.068C407.935 581.5 407.407 582.1 407.023 582.868C406.639 583.612 406.459 584.464 406.483 585.424C406.459 586.384 406.639 587.236 407.023 587.98C407.407 588.724 407.935 589.312 408.607 589.744C409.303 590.176 410.083 590.392 410.947 590.392ZM425.009 595V575.884H430.481L430.661 579.772L429.509 580.204C429.773 579.34 430.241 578.56 430.913 577.864C431.609 577.144 432.437 576.568 433.397 576.136C434.357 575.704 435.365 575.488 436.421 575.488C437.861 575.488 439.073 575.788 440.057 576.388C441.041 576.964 441.785 577.84 442.289 579.016C442.793 580.168 443.045 581.584 443.045 583.264V595H437.249V583.732C437.249 582.964 437.141 582.328 436.925 581.824C436.709 581.32 436.373 580.948 435.917 580.708C435.485 580.444 434.945 580.324 434.297 580.348C433.793 580.348 433.325 580.432 432.893 580.6C432.461 580.744 432.089 580.972 431.777 581.284C431.465 581.572 431.213 581.908 431.021 582.292C430.853 582.676 430.769 583.096 430.769 583.552V595H427.925C427.253 595 426.677 595 426.197 595C425.717 595 425.321 595 425.009 595ZM454.305 595.36C452.433 595.36 450.777 595.06 449.337 594.46C447.921 593.86 446.793 593.056 445.953 592.048L449.445 589.024C450.189 589.768 451.029 590.32 451.965 590.68C452.901 591.016 453.789 591.184 454.629 591.184C454.965 591.184 455.265 591.148 455.529 591.076C455.793 591.004 456.009 590.908 456.177 590.788C456.369 590.644 456.513 590.488 456.609 590.32C456.705 590.128 456.753 589.912 456.753 589.672C456.753 589.192 456.537 588.82 456.105 588.556C455.889 588.436 455.529 588.292 455.025 588.124C454.521 587.956 453.873 587.764 453.081 587.548C451.953 587.26 450.969 586.924 450.129 586.54C449.313 586.132 448.641 585.664 448.113 585.136C447.633 584.632 447.261 584.08 446.997 583.48C446.733 582.856 446.601 582.16 446.601 581.392C446.601 580.504 446.805 579.7 447.213 578.98C447.645 578.26 448.209 577.636 448.905 577.108C449.625 576.58 450.441 576.184 451.353 575.92C452.289 575.632 453.249 575.488 454.233 575.488C455.289 575.488 456.297 575.608 457.257 575.848C458.217 576.088 459.105 576.424 459.921 576.856C460.761 577.288 461.505 577.804 462.153 578.404L459.129 581.788C458.697 581.38 458.205 581.02 457.653 580.708C457.125 580.372 456.573 580.108 455.997 579.916C455.421 579.724 454.893 579.628 454.413 579.628C454.053 579.628 453.729 579.664 453.441 579.736C453.177 579.784 452.949 579.88 452.757 580.024C452.565 580.144 452.421 580.3 452.325 580.492C452.229 580.66 452.181 580.864 452.181 581.104C452.181 581.344 452.241 581.572 452.361 581.788C452.505 582.004 452.697 582.184 452.937 582.328C453.177 582.472 453.561 582.64 454.089 582.832C454.617 583 455.337 583.216 456.249 583.48C457.377 583.792 458.349 584.14 459.165 584.524C459.981 584.908 460.629 585.364 461.109 585.892C461.493 586.3 461.781 586.78 461.973 587.332C462.165 587.86 462.261 588.436 462.261 589.06C462.261 590.284 461.913 591.376 461.217 592.336C460.545 593.272 459.609 594.016 458.409 594.568C457.209 595.096 455.841 595.36 454.305 595.36Z" fill="#939090"/>
<path d="M192.96 638V624H194.9L203.46 635.46L203.14 635.64C203.087 635.307 203.04 634.947 203 634.56C202.96 634.16 202.92 633.74 202.88 633.3C202.853 632.847 202.827 632.373 202.8 631.88C202.787 631.373 202.773 630.847 202.76 630.3C202.747 629.753 202.74 629.187 202.74 628.6V624H204.9V638H202.92L194.5 626.96L194.72 626.68C194.787 627.493 194.84 628.187 194.88 628.76C194.933 629.32 194.973 629.8 195 630.2C195.04 630.587 195.067 630.907 195.08 631.16C195.093 631.4 195.1 631.6 195.1 631.76C195.113 631.92 195.12 632.06 195.12 632.18V638H192.96ZM213.019 638.2C211.993 638.2 211.073 637.967 210.259 637.5C209.459 637.02 208.826 636.373 208.359 635.56C207.893 634.733 207.659 633.793 207.659 632.74C207.659 631.687 207.893 630.753 208.359 629.94C208.826 629.113 209.459 628.467 210.259 628C211.073 627.52 211.993 627.28 213.019 627.28C214.033 627.28 214.939 627.52 215.739 628C216.553 628.467 217.193 629.113 217.659 629.94C218.126 630.753 218.359 631.687 218.359 632.74C218.359 633.793 218.126 634.733 217.659 635.56C217.193 636.373 216.553 637.02 215.739 637.5C214.939 637.967 214.033 638.2 213.019 638.2ZM213.019 636.32C213.646 636.32 214.206 636.167 214.699 635.86C215.193 635.54 215.579 635.113 215.859 634.58C216.139 634.033 216.273 633.42 216.259 632.74C216.273 632.047 216.139 631.433 215.859 630.9C215.579 630.353 215.193 629.927 214.699 629.62C214.206 629.313 213.646 629.16 213.019 629.16C212.393 629.16 211.826 629.32 211.319 629.64C210.826 629.947 210.439 630.373 210.159 630.92C209.879 631.453 209.746 632.06 209.759 632.74C209.746 633.42 209.879 634.033 210.159 634.58C210.439 635.113 210.826 635.54 211.319 635.86C211.826 636.167 212.393 636.32 213.019 636.32ZM221.904 638V624.82H223.964V638H221.904ZM219.724 629.5V627.5H226.404V629.5H219.724ZM228.62 638V627.5H230.68V638H228.62ZM229.62 625.18C229.18 625.18 228.84 625.067 228.6 624.84C228.36 624.613 228.24 624.293 228.24 623.88C228.24 623.493 228.36 623.18 228.6 622.94C228.853 622.7 229.193 622.58 229.62 622.58C230.06 622.58 230.4 622.693 230.64 622.92C230.88 623.147 231 623.467 231 623.88C231 624.267 230.873 624.58 230.62 624.82C230.38 625.06 230.047 625.18 229.62 625.18ZM234.986 638V626.32C234.986 625.72 235.12 625.187 235.386 624.72C235.653 624.253 236.02 623.887 236.486 623.62C236.953 623.353 237.493 623.22 238.106 623.22C238.533 623.22 238.933 623.3 239.306 623.46C239.68 623.62 239.98 623.833 240.206 624.1L239.506 625.68C239.333 625.52 239.14 625.393 238.926 625.3C238.726 625.193 238.533 625.14 238.346 625.14C238.066 625.14 237.826 625.187 237.626 625.28C237.44 625.36 237.3 625.493 237.206 625.68C237.113 625.853 237.066 626.067 237.066 626.32V638H236.026C235.853 638 235.68 638 235.506 638C235.333 638 235.16 638 234.986 638ZM233.306 629.58V627.68H239.546V629.58H233.306ZM242.046 638V627.5H244.106V638H242.046ZM243.046 625.18C242.606 625.18 242.266 625.067 242.026 624.84C241.786 624.613 241.666 624.293 241.666 623.88C241.666 623.493 241.786 623.18 242.026 622.94C242.28 622.7 242.62 622.58 243.046 622.58C243.486 622.58 243.826 622.693 244.066 622.92C244.306 623.147 244.426 623.467 244.426 623.88C244.426 624.267 244.3 624.58 244.046 624.82C243.806 625.06 243.473 625.18 243.046 625.18ZM251.724 638.2C250.751 638.2 249.878 637.96 249.104 637.48C248.344 637 247.738 636.347 247.284 635.52C246.844 634.693 246.624 633.767 246.624 632.74C246.624 631.713 246.844 630.787 247.284 629.96C247.738 629.133 248.344 628.48 249.104 628C249.878 627.52 250.751 627.28 251.724 627.28C252.658 627.28 253.504 627.473 254.264 627.86C255.038 628.233 255.624 628.747 256.024 629.4L254.884 630.8C254.671 630.493 254.398 630.213 254.064 629.96C253.731 629.707 253.378 629.507 253.004 629.36C252.631 629.213 252.271 629.14 251.924 629.14C251.284 629.14 250.711 629.3 250.204 629.62C249.711 629.927 249.318 630.353 249.024 630.9C248.731 631.447 248.584 632.06 248.584 632.74C248.584 633.42 248.738 634.033 249.044 634.58C249.351 635.113 249.758 635.54 250.264 635.86C250.771 636.18 251.331 636.34 251.944 636.34C252.304 636.34 252.651 636.28 252.984 636.16C253.331 636.04 253.664 635.86 253.984 635.62C254.304 635.38 254.604 635.087 254.884 634.74L256.024 636.14C255.598 636.74 254.984 637.233 254.184 637.62C253.398 638.007 252.578 638.2 251.724 638.2ZM262.007 638.2C261.141 638.2 260.347 637.96 259.627 637.48C258.921 637 258.354 636.347 257.927 635.52C257.501 634.693 257.287 633.76 257.287 632.72C257.287 631.667 257.501 630.733 257.927 629.92C258.367 629.093 258.954 628.447 259.687 627.98C260.434 627.513 261.267 627.28 262.187 627.28C262.734 627.28 263.234 627.36 263.687 627.52C264.141 627.68 264.534 627.907 264.867 628.2C265.214 628.48 265.494 628.807 265.707 629.18C265.934 629.553 266.074 629.953 266.127 630.38L265.667 630.22V627.5H267.747V638H265.667V635.5L266.147 635.36C266.067 635.72 265.901 636.073 265.647 636.42C265.407 636.753 265.094 637.053 264.707 637.32C264.334 637.587 263.914 637.8 263.447 637.96C262.994 638.12 262.514 638.2 262.007 638.2ZM262.547 636.3C263.174 636.3 263.727 636.147 264.207 635.84C264.687 635.533 265.061 635.113 265.327 634.58C265.607 634.033 265.747 633.413 265.747 632.72C265.747 632.04 265.607 631.433 265.327 630.9C265.061 630.367 264.687 629.947 264.207 629.64C263.727 629.333 263.174 629.18 262.547 629.18C261.934 629.18 261.387 629.333 260.907 629.64C260.441 629.947 260.067 630.367 259.787 630.9C259.521 631.433 259.387 632.04 259.387 632.72C259.387 633.413 259.521 634.033 259.787 634.58C260.067 635.113 260.441 635.533 260.907 635.84C261.387 636.147 261.934 636.3 262.547 636.3ZM271.924 638V624.82H273.984V638H271.924ZM269.744 629.5V627.5H276.424V629.5H269.744ZM278.639 638V627.5H280.699V638H278.639ZM279.639 625.18C279.199 625.18 278.859 625.067 278.619 624.84C278.379 624.613 278.259 624.293 278.259 623.88C278.259 623.493 278.379 623.18 278.619 622.94C278.873 622.7 279.213 622.58 279.639 622.58C280.079 622.58 280.419 622.693 280.659 622.92C280.899 623.147 281.019 623.467 281.019 623.88C281.019 624.267 280.893 624.58 280.639 624.82C280.399 625.06 280.066 625.18 279.639 625.18ZM288.586 638.2C287.559 638.2 286.639 637.967 285.826 637.5C285.026 637.02 284.392 636.373 283.926 635.56C283.459 634.733 283.226 633.793 283.226 632.74C283.226 631.687 283.459 630.753 283.926 629.94C284.392 629.113 285.026 628.467 285.826 628C286.639 627.52 287.559 627.28 288.586 627.28C289.599 627.28 290.506 627.52 291.306 628C292.119 628.467 292.759 629.113 293.226 629.94C293.692 630.753 293.926 631.687 293.926 632.74C293.926 633.793 293.692 634.733 293.226 635.56C292.759 636.373 292.119 637.02 291.306 637.5C290.506 637.967 289.599 638.2 288.586 638.2ZM288.586 636.32C289.212 636.32 289.772 636.167 290.266 635.86C290.759 635.54 291.146 635.113 291.426 634.58C291.706 634.033 291.839 633.42 291.826 632.74C291.839 632.047 291.706 631.433 291.426 630.9C291.146 630.353 290.759 629.927 290.266 629.62C289.772 629.313 289.212 629.16 288.586 629.16C287.959 629.16 287.392 629.32 286.886 629.64C286.392 629.947 286.006 630.373 285.726 630.92C285.446 631.453 285.312 632.06 285.326 632.74C285.312 633.42 285.446 634.033 285.726 634.58C286.006 635.113 286.392 635.54 286.886 635.86C287.392 636.167 287.959 636.32 288.586 636.32ZM296.17 638V627.5H298.23V629.66L297.87 629.9C298.004 629.433 298.264 629.007 298.65 628.62C299.037 628.22 299.497 627.9 300.03 627.66C300.564 627.407 301.11 627.28 301.67 627.28C302.47 627.28 303.137 627.44 303.67 627.76C304.204 628.067 304.604 628.54 304.87 629.18C305.137 629.82 305.27 630.627 305.27 631.6V638H303.21V631.74C303.21 631.14 303.13 630.647 302.97 630.26C302.81 629.86 302.564 629.573 302.23 629.4C301.897 629.213 301.484 629.133 300.99 629.16C300.59 629.16 300.224 629.227 299.89 629.36C299.557 629.48 299.264 629.653 299.01 629.88C298.77 630.107 298.577 630.373 298.43 630.68C298.297 630.973 298.23 631.293 298.23 631.64V638H297.21C297.037 638 296.864 638 296.69 638C296.517 638 296.344 638 296.17 638ZM313.67 638V636H315.93V626H313.67V624H320.35V626H318.09V636H320.35V638H313.67ZM323.221 638V627.5H325.281V629.66L324.921 629.9C325.055 629.433 325.315 629.007 325.701 628.62C326.088 628.22 326.548 627.9 327.081 627.66C327.615 627.407 328.161 627.28 328.721 627.28C329.521 627.28 330.188 627.44 330.721 627.76C331.255 628.067 331.655 628.54 331.921 629.18C332.188 629.82 332.321 630.627 332.321 631.6V638H330.261V631.74C330.261 631.14 330.181 630.647 330.021 630.26C329.861 629.86 329.615 629.573 329.281 629.4C328.948 629.213 328.535 629.133 328.041 629.16C327.641 629.16 327.275 629.227 326.941 629.36C326.608 629.48 326.315 629.653 326.061 629.88C325.821 630.107 325.628 630.373 325.481 630.68C325.348 630.973 325.281 631.293 325.281 631.64V638H324.261C324.088 638 323.915 638 323.741 638C323.568 638 323.395 638 323.221 638ZM340.636 638.2C340.182 638.2 339.729 638.127 339.276 637.98C338.836 637.833 338.429 637.64 338.056 637.4C337.696 637.147 337.389 636.873 337.136 636.58C336.896 636.273 336.736 635.967 336.656 635.66L337.176 635.38V637.94H335.116V623.2H337.176V629.9L336.856 629.72C336.922 629.413 337.069 629.12 337.296 628.84C337.522 628.547 337.809 628.287 338.156 628.06C338.516 627.82 338.902 627.633 339.316 627.5C339.729 627.353 340.149 627.28 340.576 627.28C341.522 627.28 342.362 627.513 343.096 627.98C343.829 628.447 344.409 629.093 344.836 629.92C345.262 630.733 345.476 631.667 345.476 632.72C345.476 633.773 345.262 634.713 344.836 635.54C344.422 636.367 343.849 637.02 343.116 637.5C342.382 637.967 341.556 638.2 340.636 638.2ZM340.296 636.32C340.909 636.32 341.456 636.167 341.936 635.86C342.416 635.54 342.796 635.113 343.076 634.58C343.356 634.033 343.496 633.413 343.496 632.72C343.496 632.04 343.356 631.433 343.076 630.9C342.809 630.353 342.436 629.927 341.956 629.62C341.476 629.313 340.922 629.16 340.296 629.16C339.669 629.16 339.116 629.313 338.636 629.62C338.156 629.927 337.776 630.353 337.496 630.9C337.216 631.433 337.076 632.04 337.076 632.72C337.076 633.413 337.216 634.033 337.496 634.58C337.776 635.113 338.156 635.54 338.636 635.86C339.116 636.167 339.669 636.32 340.296 636.32ZM352.433 638.2C351.407 638.2 350.487 637.967 349.673 637.5C348.873 637.02 348.24 636.373 347.773 635.56C347.307 634.733 347.073 633.793 347.073 632.74C347.073 631.687 347.307 630.753 347.773 629.94C348.24 629.113 348.873 628.467 349.673 628C350.487 627.52 351.407 627.28 352.433 627.28C353.447 627.28 354.353 627.52 355.153 628C355.967 628.467 356.607 629.113 357.073 629.94C357.54 630.753 357.773 631.687 357.773 632.74C357.773 633.793 357.54 634.733 357.073 635.56C356.607 636.373 355.967 637.02 355.153 637.5C354.353 637.967 353.447 638.2 352.433 638.2ZM352.433 636.32C353.06 636.32 353.62 636.167 354.113 635.86C354.607 635.54 354.993 635.113 355.273 634.58C355.553 634.033 355.687 633.42 355.673 632.74C355.687 632.047 355.553 631.433 355.273 630.9C354.993 630.353 354.607 629.927 354.113 629.62C353.62 629.313 353.06 629.16 352.433 629.16C351.807 629.16 351.24 629.32 350.733 629.64C350.24 629.947 349.853 630.373 349.573 630.92C349.293 631.453 349.16 632.06 349.173 632.74C349.16 633.42 349.293 634.033 349.573 634.58C349.853 635.113 350.24 635.54 350.733 635.86C351.24 636.167 351.807 636.32 352.433 636.32ZM366.608 638L363.208 633.58L362.908 633.2L358.488 627.5H361.088L364.428 631.86L364.768 632.3L369.128 638H366.608ZM358.508 638L362.648 632.6L363.868 634.06L360.948 638H358.508ZM364.888 632.92L363.748 631.48L366.328 627.5H368.768L364.888 632.92ZM376.983 638V624H385.803V626.08H379.143V635.92H385.803V638H376.983ZM377.963 631.86V629.78H384.703V631.86H377.963ZM388.709 638V627.5H390.789V629.74L390.409 629.98C390.515 629.633 390.682 629.3 390.909 628.98C391.149 628.66 391.435 628.38 391.769 628.14C392.115 627.887 392.482 627.687 392.869 627.54C393.269 627.393 393.675 627.32 394.089 627.32C394.689 627.32 395.215 627.42 395.669 627.62C396.122 627.82 396.495 628.12 396.789 628.52C397.082 628.92 397.295 629.42 397.429 630.02L397.109 629.94L397.249 629.6C397.395 629.293 397.595 629.007 397.849 628.74C398.115 628.46 398.415 628.213 398.749 628C399.082 627.787 399.435 627.62 399.809 627.5C400.182 627.38 400.549 627.32 400.909 627.32C401.695 627.32 402.342 627.48 402.849 627.8C403.369 628.12 403.755 628.607 404.009 629.26C404.275 629.913 404.409 630.727 404.409 631.7V638H402.329V631.82C402.329 631.22 402.249 630.733 402.089 630.36C401.942 629.973 401.715 629.687 401.409 629.5C401.102 629.313 400.709 629.22 400.229 629.22C399.855 629.22 399.502 629.287 399.169 629.42C398.849 629.54 398.569 629.713 398.329 629.94C398.089 630.167 397.902 630.433 397.769 630.74C397.635 631.033 397.569 631.36 397.569 631.72V638H395.489V631.78C395.489 631.233 395.409 630.773 395.249 630.4C395.089 630.013 394.855 629.72 394.549 629.52C394.242 629.32 393.869 629.22 393.429 629.22C393.055 629.22 392.709 629.287 392.389 629.42C392.069 629.54 391.789 629.713 391.549 629.94C391.309 630.153 391.122 630.413 390.989 630.72C390.855 631.013 390.789 631.333 390.789 631.68V638H388.709ZM407.167 642.4V627.5H409.247V629.9L408.927 629.72C409.007 629.32 409.233 628.94 409.607 628.58C409.98 628.207 410.433 627.907 410.967 627.68C411.513 627.44 412.073 627.32 412.647 627.32C413.593 627.32 414.433 627.553 415.167 628.02C415.9 628.487 416.48 629.127 416.907 629.94C417.333 630.753 417.547 631.687 417.547 632.74C417.547 633.78 417.333 634.713 416.907 635.54C416.493 636.353 415.92 637 415.187 637.48C414.453 637.947 413.627 638.18 412.707 638.18C412.093 638.18 411.5 638.06 410.927 637.82C410.353 637.567 409.867 637.247 409.467 636.86C409.067 636.473 408.82 636.073 408.727 635.66L409.247 635.38V642.4H407.167ZM412.367 636.28C412.98 636.28 413.527 636.127 414.007 635.82C414.487 635.513 414.867 635.093 415.147 634.56C415.427 634.027 415.567 633.42 415.567 632.74C415.567 632.06 415.427 631.46 415.147 630.94C414.88 630.407 414.507 629.987 414.027 629.68C413.547 629.373 412.993 629.22 412.367 629.22C411.74 629.22 411.187 629.373 410.707 629.68C410.227 629.973 409.847 630.387 409.567 630.92C409.287 631.453 409.147 632.06 409.147 632.74C409.147 633.42 409.287 634.027 409.567 634.56C409.847 635.093 410.227 635.513 410.707 635.82C411.187 636.127 411.74 636.28 412.367 636.28ZM421.084 638V624.82H423.144V638H421.084ZM418.904 629.5V627.5H425.584V629.5H418.904ZM429.22 642.6L431.34 637.7L431.36 639.34L426.12 627.5H428.52L431.8 635.22C431.866 635.353 431.946 635.56 432.04 635.84C432.133 636.107 432.213 636.373 432.28 636.64L431.76 636.76C431.866 636.48 431.966 636.2 432.06 635.92C432.166 635.64 432.266 635.36 432.36 635.08L435.1 627.5H437.54L433.22 638L431.44 642.6H429.22Z" fill="#A0A0A0"/>
</svg>
