<svg width="28" height="29" viewBox="0 0 28 29" fill="none" xmlns="http://www.w3.org/2000/svg">
<path d="M14.0227 3.42627C10.161 3.42627 7.0227 6.5646 7.0227 10.4263V13.7979C7.0227 14.5096 6.71937 15.5946 6.3577 16.2013L5.01604 18.4296C4.1877 19.8063 4.75937 21.3346 6.27604 21.8479C11.3044 23.5279 16.7294 23.5279 21.7577 21.8479C23.1694 21.3813 23.7877 19.7129 23.0177 18.4296L21.676 16.2013C21.326 15.5946 21.0227 14.5096 21.0227 13.7979V10.4263C21.0227 6.57627 17.8727 3.42627 14.0227 3.42627Z" stroke="#292D32" stroke-width="2" stroke-miterlimit="10" stroke-linecap="round"/>
<path d="M16.1819 3.76443C15.8202 3.65943 15.4469 3.57777 15.0619 3.5311C13.9419 3.3911 12.8686 3.47277 11.8652 3.76443C12.2036 2.9011 13.0436 2.29443 14.0236 2.29443C15.0036 2.29443 15.8436 2.9011 16.1819 3.76443Z" stroke="#292D32" stroke-width="2" stroke-miterlimit="10" stroke-linecap="round" stroke-linejoin="round"/>
<path d="M17.523 22.2681C17.523 24.1931 15.948 25.7681 14.0229 25.7681C13.0663 25.7681 12.1796 25.3714 11.5496 24.7414C10.9196 24.1114 10.5229 23.2247 10.5229 22.2681" stroke="#292D32" stroke-width="2" stroke-miterlimit="10"/>
</svg>
