<svg width="36" height="36" viewBox="0 0 36 36" fill="none" xmlns="http://www.w3.org/2000/svg">
<path d="M4.5 7.5C4.5 5.84315 5.84315 4.5 7.5 4.5H12.4189C13.0645 4.5 13.6377 4.91315 13.8419 5.52566L16.0886 12.2658C16.3247 12.974 16.0041 13.748 15.3364 14.0818L11.9505 15.7747C13.6039 19.4418 16.5582 22.3961 20.2253 24.0495L21.9182 20.6636C22.252 19.9959 23.026 19.6753 23.7342 19.9114L30.4743 22.1581C31.0869 22.3623 31.5 22.9355 31.5 23.5811V28.5C31.5 30.1569 30.1569 31.5 28.5 31.5H27C14.5736 31.5 4.5 21.4264 4.5 9V7.5Z" stroke="#111827" stroke-width="2.5" stroke-linecap="round" stroke-linejoin="round"/>
</svg>
