<svg width="26" height="27" viewBox="0 0 26 27" fill="none" xmlns="http://www.w3.org/2000/svg">
<path d="M19.5 24.4919C18.5972 24.4919 17.8299 24.1759 17.1979 23.5439C16.566 22.912 16.25 22.1446 16.25 21.2419C16.25 21.1155 16.259 20.9846 16.2771 20.8492C16.2951 20.7137 16.3222 20.5919 16.3583 20.4835L8.72083 16.0419C8.41389 16.3127 8.07083 16.5248 7.69167 16.6783C7.3125 16.8318 6.91528 16.9085 6.5 16.9085C5.59722 16.9085 4.82986 16.5926 4.19792 15.9606C3.56597 15.3287 3.25 14.5613 3.25 13.6585C3.25 12.7558 3.56597 11.9884 4.19792 11.3564C4.82986 10.7245 5.59722 10.4085 6.5 10.4085C6.91528 10.4085 7.3125 10.4853 7.69167 10.6387C8.07083 10.7922 8.41389 11.0044 8.72083 11.2752L16.3583 6.83353C16.3222 6.7252 16.2951 6.60332 16.2771 6.4679C16.259 6.33249 16.25 6.20158 16.25 6.0752C16.25 5.17242 16.566 4.40506 17.1979 3.77311C17.8299 3.14117 18.5972 2.8252 19.5 2.8252C20.4028 2.8252 21.1701 3.14117 21.8021 3.77311C22.434 4.40506 22.75 5.17242 22.75 6.0752C22.75 6.97797 22.434 7.74533 21.8021 8.37728C21.1701 9.00922 20.4028 9.3252 19.5 9.3252C19.0847 9.3252 18.6875 9.24846 18.3083 9.09499C17.9292 8.94151 17.5861 8.72936 17.2792 8.45853L9.64167 12.9002C9.67778 13.0085 9.70486 13.1304 9.72292 13.2658C9.74097 13.4012 9.75 13.5321 9.75 13.6585C9.75 13.7849 9.74097 13.9158 9.72292 14.0512C9.70486 14.1867 9.67778 14.3085 9.64167 14.4169L17.2792 18.8585C17.5861 18.5877 17.9292 18.3755 18.3083 18.2221C18.6875 18.0686 19.0847 17.9919 19.5 17.9919C20.4028 17.9919 21.1701 18.3078 21.8021 18.9398C22.434 19.5717 22.75 20.3391 22.75 21.2419C22.75 22.1446 22.434 22.912 21.8021 23.5439C21.1701 24.1759 20.4028 24.4919 19.5 24.4919ZM19.5 7.15853C19.8069 7.15853 20.0642 7.05471 20.2719 6.84707C20.4795 6.63943 20.5833 6.38214 20.5833 6.0752C20.5833 5.76825 20.4795 5.51096 20.2719 5.30332C20.0642 5.09568 19.8069 4.99186 19.5 4.99186C19.1931 4.99186 18.9358 5.09568 18.7281 5.30332C18.5205 5.51096 18.4167 5.76825 18.4167 6.0752C18.4167 6.38214 18.5205 6.63943 18.7281 6.84707C18.9358 7.05471 19.1931 7.15853 19.5 7.15853ZM6.5 14.7419C6.80694 14.7419 7.06424 14.638 7.27188 14.4304C7.47951 14.2228 7.58333 13.9655 7.58333 13.6585C7.58333 13.3516 7.47951 13.0943 7.27188 12.8867C7.06424 12.679 6.80694 12.5752 6.5 12.5752C6.19306 12.5752 5.93576 12.679 5.72813 12.8867C5.52049 13.0943 5.41667 13.3516 5.41667 13.6585C5.41667 13.9655 5.52049 14.2228 5.72813 14.4304C5.93576 14.638 6.19306 14.7419 6.5 14.7419ZM19.5 22.3252C19.8069 22.3252 20.0642 22.2214 20.2719 22.0137C20.4795 21.8061 20.5833 21.5488 20.5833 21.2419C20.5833 20.9349 20.4795 20.6776 20.2719 20.47C20.0642 20.2624 19.8069 20.1585 19.5 20.1585C19.1931 20.1585 18.9358 20.2624 18.7281 20.47C18.5205 20.6776 18.4167 20.9349 18.4167 21.2419C18.4167 21.5488 18.5205 21.8061 18.7281 22.0137C18.9358 22.2214 19.1931 22.3252 19.5 22.3252Z" fill="#1D1B20"/>
</svg>
