<svg width="19" height="19" viewBox="0 0 19 19" fill="none" xmlns="http://www.w3.org/2000/svg">
<path d="M13.4346 9.698V13.2605C13.4346 16.2292 12.2471 17.4167 9.27832 17.4167H5.71582C2.74707 17.4167 1.55957 16.2292 1.55957 13.2605V9.698C1.55957 6.72925 2.74707 5.54175 5.71582 5.54175H9.27832C12.2471 5.54175 13.4346 6.72925 13.4346 9.698Z" stroke="#1E1E1E" stroke-opacity="0.8" stroke-width="2" stroke-linecap="round" stroke-linejoin="round"/>
<path d="M17.3929 4.63117V7.24367C17.3929 9.42075 16.5221 10.2916 14.345 10.2916H13.4346V9.69784C13.4346 6.72909 12.2471 5.54159 9.27832 5.54159H8.68457V4.63117C8.68457 2.45409 9.5554 1.58325 11.7325 1.58325H14.345C16.5221 1.58325 17.3929 2.45409 17.3929 4.63117Z" stroke="#1E1E1E" stroke-opacity="0.8" stroke-width="2" stroke-linecap="round" stroke-linejoin="round"/>
</svg>
