<svg width="19" height="19" viewBox="0 0 19 19" fill="none" xmlns="http://www.w3.org/2000/svg">
<path d="M8.28394 0.921616C8.6673 -0.307205 10.3324 -0.307205 10.7145 0.921616L12.0818 5.31388C12.1653 5.58138 12.3277 5.81446 12.5458 5.9798C12.7638 6.14514 13.0263 6.23429 13.2958 6.2345H17.7198C18.9581 6.2345 19.4718 7.88894 18.4712 8.64945L14.8931 11.3633C14.6746 11.5287 14.512 11.7622 14.4284 12.0302C14.3448 12.2981 14.3447 12.5869 14.428 12.8549L15.7953 17.2472C16.1787 18.476 14.8305 19.4994 13.8274 18.7389L10.2493 16.025C10.0311 15.8596 9.76827 15.7705 9.49856 15.7705C9.22885 15.7705 8.96606 15.8596 8.74781 16.025L5.16975 18.7389C4.16789 19.4994 2.821 18.476 3.20309 17.2472L4.57042 12.8549C4.65371 12.5869 4.65356 12.2981 4.56999 12.0302C4.48643 11.7622 4.32375 11.5287 4.10527 11.3633L0.52849 8.65078C-0.472089 7.89027 0.0428958 6.23583 1.27988 6.23583H5.70262C5.97231 6.23591 6.23512 6.14689 6.4534 5.98153C6.67169 5.81616 6.83428 5.58293 6.91788 5.31522L8.28521 0.92295L8.28394 0.921616Z" fill="#FFBF00"/>
</svg>
