<svg width="334" height="107" viewBox="0 0 334 107" fill="none" xmlns="http://www.w3.org/2000/svg">
<g clip-path="url(#clip0_1412_21055)">
<path d="M115.673 21.8242C118.072 21.8242 120.47 21.8242 122.941 21.8242C122.941 24.625 122.941 27.4258 122.941 30.3115C125.339 30.3115 127.737 30.3115 130.208 30.3115C130.208 27.5107 130.208 24.7099 130.208 21.8242C132.606 21.8242 135.005 21.8242 137.476 21.8242C137.476 29.3263 137.476 36.8285 137.476 44.5579C135.077 44.5579 132.679 44.5579 130.208 44.5579C130.208 41.7571 130.208 38.9563 130.208 36.0707C127.81 36.0707 125.412 36.0707 122.941 36.0707C122.941 38.8715 122.941 41.6723 122.941 44.5579C122.541 44.658 122.141 44.758 121.73 44.861C121.829 45.0611 121.929 45.2612 122.032 45.4673C119.491 45.7867 116.942 45.9272 114.386 46.0735C112.895 46.1597 111.405 46.2476 109.914 46.3401C109.33 46.3757 108.747 46.4087 108.163 46.4418C107.814 46.464 107.464 46.4863 107.105 46.5092C106.799 46.5276 106.494 46.546 106.179 46.5649C105.374 46.6803 104.849 46.8496 104.167 47.286C103.723 48.174 103.81 49.0743 103.8 50.0484C103.792 50.4971 103.784 50.9459 103.776 51.3946C103.772 51.6301 103.768 51.8657 103.764 52.1083C103.576 62.2016 101.731 71.3964 96.8991 80.3256C96.7965 80.5159 96.6939 80.7061 96.5883 80.9021C90.3338 92.3208 79.3566 101.391 66.8992 105.159C65.9379 105.432 64.9741 105.69 64.0063 105.939C63.7086 106.016 63.411 106.094 63.1043 106.174C61.2176 106.63 59.4726 106.792 57.5337 106.697C56.6819 104.91 56.8265 103.07 56.8325 101.135C56.8334 100.485 56.8263 99.8346 56.8187 99.184C56.818 98.7676 56.8178 98.3512 56.8181 97.9348C56.8172 97.5587 56.8163 97.1826 56.8153 96.7952C56.9398 95.6793 57.1195 95.1292 57.8365 94.269C58.6133 93.885 58.6133 93.885 59.5434 93.6095C60.0553 93.4509 60.0553 93.4509 60.5776 93.2892C60.9408 93.1812 61.3041 93.0731 61.6784 92.9618C64.917 91.9389 67.9247 90.8324 70.8574 89.116C71.0376 89.0114 71.2178 88.9069 71.4035 88.7991C80.9497 83.1722 86.7187 74.1484 89.5182 63.543C90.6464 59.0366 91.4098 54.3336 90.54 49.7109C88.7344 49.8592 87.0814 50.1624 85.3556 50.7091C85.1319 50.7778 84.9083 50.8465 84.6778 50.9174C83.9626 51.138 83.2486 51.3621 82.5345 51.5864C82.0433 51.7389 81.552 51.8912 81.0607 52.0433C77.8472 53.0417 74.6437 54.0679 71.463 55.167C71.1632 55.267 70.8634 55.3671 70.5546 55.4701C70.1425 56.4807 70.2101 57.5551 70.204 58.6326C70.2009 59.0282 70.1978 59.4237 70.1946 59.8313C70.1935 60.0419 70.1925 60.2524 70.1914 60.4694C70.1878 61.1308 70.1819 61.7921 70.1753 62.4534C70.1567 64.3333 70.1403 66.2132 70.1302 68.0932C70.1239 69.2444 70.1132 70.3955 70.0997 71.5466C70.0954 71.9844 70.0928 72.4223 70.0918 72.8601C70.0903 73.4731 70.0828 74.086 70.0751 74.699C70.0714 75.2215 70.0714 75.2215 70.0676 75.7547C69.8557 77.4212 68.9485 78.4591 67.6743 79.5134C65.9287 80.6929 63.984 81.5646 62.0759 82.4475C61.8857 82.5373 61.6956 82.6271 61.4997 82.7197C60.5088 83.1712 59.7056 83.4712 58.6125 83.4136C58.2565 83.3949 57.9005 83.3761 57.5337 83.3568C56.8701 82.281 56.8456 81.3932 56.8315 80.1424C56.827 79.845 56.827 79.845 56.8223 79.5416C56.813 78.8889 56.8078 78.2362 56.8027 77.5834C56.797 77.1298 56.7911 76.6762 56.7849 76.2226C56.7694 75.0307 56.7574 73.8387 56.7461 72.6467C56.734 71.4296 56.7185 70.2126 56.7033 68.9955C56.674 66.6089 56.6485 64.2222 56.6253 61.8356C56.1445 62.0251 55.664 62.2153 55.1837 62.4059C54.9161 62.5118 54.6485 62.6176 54.3728 62.7267C51.9072 63.7481 48.8136 65.1313 47.541 67.5948C46.9425 69.9791 46.845 72.3892 46.8436 74.8354C46.8398 75.3447 46.8398 75.3447 46.8358 75.8643C46.8281 76.9733 46.8244 78.0823 46.8206 79.1913C46.8157 79.9662 46.8105 80.7411 46.805 81.516C46.7926 83.339 46.7826 85.1621 46.774 86.9852C46.7575 90.4515 46.737 93.9177 46.714 97.384C46.7071 98.5228 46.7022 99.6616 46.6975 100.8C46.6934 101.493 46.6893 102.187 46.6851 102.88C46.6843 103.198 46.6835 103.516 46.6827 103.843C46.6806 104.132 46.6785 104.421 46.6764 104.719C46.6752 104.971 46.674 105.222 46.6728 105.482C46.6325 106.091 46.6325 106.091 46.3297 106.697C41.935 108.236 33.8435 104.366 29.933 102.503C24.325 99.7063 19.861 96.2665 15.443 91.8441C15.2397 91.6546 15.0363 91.465 14.8268 91.2698C12.3425 88.9172 8.55729 85.0813 7.98633 81.5949C8.06188 79.9122 9.13 79.0062 10.2953 77.9007C10.515 77.6889 10.7348 77.4772 10.9612 77.259C13.0511 75.3157 15.2964 73.5681 17.5627 71.8384C17.7411 71.7016 17.9195 71.5648 18.1033 71.4238C22.5147 68.0574 27.2142 65.1211 32.0879 62.4741C32.5016 62.2486 32.9142 62.021 33.3257 61.7915C51.5639 51.6188 72.8722 46.1007 93.5682 44.2548C93.8692 44.2276 94.1703 44.2003 94.4806 44.1722C97.0536 43.9559 99.6256 43.8545 102.206 43.7827C102.906 43.7626 103.606 43.7388 104.306 43.7149C108.133 43.6056 111.819 43.784 115.673 43.9517C115.673 36.6496 115.673 29.3476 115.673 21.8242ZM32.5944 75.6913C32.383 75.8675 32.1716 76.0436 31.9538 76.2251C31.7265 76.4155 31.4991 76.6058 31.2649 76.8019C29.0583 78.6371 26.817 80.4144 24.5274 82.1443C24.7846 83.5594 25.6404 84.1943 26.7038 85.0808C26.984 85.3183 26.984 85.3183 27.2699 85.5606C29.1665 87.1341 31.2014 88.4526 33.3089 89.7222C33.9704 89.1851 33.9704 89.1851 33.9873 88.5023C33.986 88.2505 33.9846 87.9988 33.9832 87.7394C33.9832 87.4542 33.9831 87.1691 33.9831 86.8752C33.98 86.5667 33.9768 86.2582 33.9736 85.9404C33.9728 85.625 33.9719 85.3097 33.971 84.9848C33.9676 83.9748 33.96 82.9649 33.9523 81.9549C33.9493 81.2713 33.9465 80.5877 33.944 79.9041C33.9374 78.2259 33.9272 76.5477 33.9145 74.8696C33.3664 74.8696 32.9983 75.3527 32.5944 75.6913Z" fill="#FFA600"/>
<path d="M46.3294 -0.000232596C47.0067 1.35572 46.701 3.20434 46.7049 4.71265C46.7079 5.39327 46.7173 6.07361 46.7268 6.75417C46.7288 7.18851 46.7304 7.62286 46.7316 8.05721C46.7344 8.45178 46.7372 8.84635 46.7401 9.25288C46.6256 10.3698 46.3914 10.9318 45.7238 11.8213C44.0467 13.0587 41.8783 13.6436 39.9325 14.3409C34.2815 16.3757 29.4921 19.1589 25.1327 23.3397C24.9063 23.5472 24.6799 23.7547 24.4466 23.9684C19.4621 28.6876 16.4492 35.0237 14.5343 41.5267C14.4561 41.7898 14.3779 42.0529 14.2973 42.324C12.7099 47.8889 12.3801 53.9991 13.2932 59.7232C13.8183 63.0257 13.8183 63.0257 12.7174 64.5635C12.0714 65.1476 11.3812 65.5944 10.6356 66.0412C10.2268 66.298 9.81832 66.5554 9.41016 66.8132C9.1013 67.0057 9.1013 67.0057 8.78621 67.2021C8.19415 67.5825 7.62314 67.9814 7.05392 68.3951C6.79153 68.585 6.79153 68.585 6.52385 68.7789C6.04428 69.1288 5.5661 69.4806 5.08801 69.8325C4.19297 70.3491 3.73692 70.4378 2.72467 70.3227C1.96131 68.6965 1.52747 67.14 1.19169 65.3781C1.14046 65.1115 1.08923 64.8449 1.03644 64.5702C-1.17254 52.7143 -0.0813803 40.6473 5.14716 29.7051C5.26114 29.4661 5.37512 29.2271 5.49255 28.9808C11.5305 16.525 21.6785 6.90474 34.7668 2.21112C36.5853 1.5945 38.4288 1.08693 40.2921 0.624944C40.6756 0.528604 40.6756 0.528604 41.0669 0.430317C42.8414 0.0195097 44.5113 -0.0720237 46.3294 -0.000232596Z" fill="#FFA600"/>
<path d="M57.5337 0.000324637C60.0281 -0.124923 62.2048 0.215017 64.6119 0.852839C64.9308 0.931963 65.2497 1.01109 65.5783 1.09261C67.0832 1.47926 68.3499 1.8405 69.6461 2.72837C70.0315 3.49999 69.9896 4.04267 69.9935 4.90682C69.9956 5.24002 69.9978 5.57321 70 5.9165C70.0009 6.28371 70.0017 6.65093 70.0025 7.02927C70.0055 7.60743 70.0055 7.60743 70.0085 8.19727C70.0138 9.25631 70.017 10.3153 70.0195 11.3744C70.0211 12.0358 70.0229 12.6972 70.0248 13.3586C70.0306 15.4273 70.0349 17.496 70.0374 19.5647C70.0404 21.954 70.0483 24.3433 70.0606 26.7326C70.0697 28.5786 70.0742 30.4246 70.0752 32.2706C70.0759 33.3735 70.0786 34.4764 70.0862 35.5794C70.0946 36.8095 70.0933 38.0395 70.0912 39.2697C70.0951 39.6357 70.099 40.0017 70.103 40.3788C70.1009 40.7137 70.0988 41.0486 70.0966 41.3936C70.0973 41.6845 70.0981 41.9754 70.0988 42.2752C69.9037 43.2746 69.5237 43.6282 68.7377 44.2553C67.7999 44.5647 67.7999 44.5647 66.7067 44.7822C66.4144 44.8412 66.4144 44.8412 66.1161 44.9015C65.705 44.9834 65.2935 45.063 64.8815 45.1404C64.2562 45.2586 63.6331 45.3854 63.0097 45.5133C59.4192 46.2186 59.4192 46.2186 57.5337 45.7709C56.8366 44.7242 56.852 44.3362 56.8512 43.1032C56.8495 42.7365 56.8477 42.3697 56.846 41.9918C56.8472 41.5848 56.8484 41.1777 56.8497 40.7707C56.8489 40.3425 56.8478 39.9143 56.8465 39.4861C56.8437 38.3225 56.8448 37.1589 56.8467 35.9953C56.8482 34.7782 56.8468 33.5611 56.8459 32.3439C56.8448 30.2995 56.8462 28.2552 56.8491 26.2108C56.8524 23.8469 56.8513 21.483 56.848 19.1192C56.8453 17.0904 56.8449 15.0616 56.8465 13.0328C56.8474 11.8208 56.8475 10.6088 56.8455 9.39675C56.8438 8.25702 56.845 7.11732 56.8485 5.97758C56.8493 5.5592 56.8491 5.14081 56.8477 4.72242C56.8461 4.15146 56.8485 3.5805 56.8512 3.00955C56.8514 2.68997 56.8516 2.37038 56.8519 2.04112C56.9284 1.20916 57.1058 0.709454 57.5337 0.000324637Z" fill="#FFA600"/>
<path d="M75.0974 5.45605C76.7661 5.59696 77.7758 6.20898 79.1096 7.14214C79.3092 7.27887 79.5087 7.4156 79.7143 7.55648C82.4931 9.48072 85.0428 11.6378 87.5126 13.9433C87.7519 14.1629 87.9912 14.3825 88.2377 14.6087C95.4635 21.5029 100.174 30.9447 102.35 40.6175C102.206 41.9743 102.206 41.9743 101.745 42.4362C100.448 42.5595 99.1461 42.6048 97.8443 42.6552C97.4075 42.6733 96.9708 42.6941 96.5343 42.718C91.9918 42.9657 91.9918 42.9657 89.9351 41.5269C88.1593 39.9026 87.4773 37.2256 86.6343 35.0372C84.4307 29.4144 80.4722 25.1255 76.1052 21.0736C74.5468 19.3829 74.3575 17.8913 74.3818 15.6921C74.3816 15.4278 74.3815 15.1634 74.3813 14.891C74.382 14.3348 74.385 13.7787 74.39 13.2226C74.3972 12.3705 74.3962 11.5186 74.3942 10.6665C74.3959 10.1251 74.398 9.58384 74.4007 9.04253C74.4004 8.78772 74.4001 8.53291 74.3999 8.27037C74.4144 7.07978 74.4232 6.4684 75.0974 5.45605Z" fill="#FFA600"/>
<path d="M221.657 21.8242C224.055 21.8242 226.454 21.8242 228.925 21.8242C230.156 25.8601 231.379 29.8973 232.558 33.9488C232.647 33.7088 232.736 33.4689 232.827 33.2216C233.157 32.3262 233.488 31.4308 233.819 30.5354C233.962 30.1489 234.104 29.7623 234.247 29.3757C234.453 28.818 234.659 28.2605 234.865 27.703C235.05 27.2006 235.05 27.2006 235.24 26.688C235.547 25.871 235.868 25.0596 236.192 24.2491C238.091 24.2491 239.989 24.2491 241.946 24.2491C243.299 27.4662 244.591 30.7064 245.882 33.9488C245.981 33.5923 246.081 33.2358 246.183 32.8685C246.551 31.5503 246.919 30.2325 247.289 28.9148C247.448 28.3436 247.608 27.7723 247.767 27.2009C247.995 26.3813 248.225 25.562 248.455 24.7429C248.526 24.4858 248.597 24.2288 248.671 23.964C249.178 22.1618 249.178 22.1618 249.516 21.8242C250.033 21.7978 250.551 21.7918 251.069 21.7946C251.539 21.796 251.539 21.796 252.018 21.7975C252.348 21.8001 252.677 21.8026 253.017 21.8052C253.513 21.8073 253.513 21.8073 254.02 21.8094C254.84 21.813 255.66 21.8182 256.48 21.8242C255.793 24.4264 255.025 27.0009 254.235 29.5738C254.108 29.9889 253.981 30.404 253.854 30.8192C253.591 31.6816 253.326 32.5438 253.062 33.406C252.723 34.5117 252.385 35.6176 252.047 36.7236C251.786 37.5774 251.524 38.4311 251.263 39.2847C251.138 39.6928 251.013 40.1009 250.888 40.5091C250.715 41.0764 250.541 41.6435 250.367 42.2106C250.268 42.5331 250.169 42.8555 250.067 43.1877C249.819 43.9517 249.819 43.9517 249.516 44.5579C247.617 44.5579 245.719 44.5579 243.762 44.5579C242.568 42.2578 241.493 39.9292 240.469 37.5483C240.347 37.2644 240.224 36.9805 240.097 36.6879C239.984 36.4209 239.87 36.1539 239.753 35.8788C239.65 35.6385 239.547 35.3981 239.442 35.1505C239.22 34.5551 239.22 34.5551 239.22 33.9488C239.02 33.9488 238.821 33.9488 238.615 33.9488C238.58 34.158 238.546 34.3672 238.51 34.5827C238.284 35.5869 237.943 36.4906 237.564 37.4477C237.491 37.6325 237.419 37.8173 237.344 38.0077C237.112 38.5939 236.879 39.1794 236.646 39.7649C236.49 40.1617 236.333 40.5585 236.177 40.9554C235.038 43.837 235.038 43.837 234.678 44.5579C232.68 44.5579 230.681 44.5579 228.622 44.5579C227.036 39.8667 225.518 35.1593 224.076 30.4219C223.77 29.4169 223.462 28.4125 223.154 27.4082C222.957 26.7664 222.762 26.1247 222.566 25.4829C222.474 25.184 222.382 24.885 222.288 24.577C222.204 24.3032 222.121 24.0294 222.036 23.7472C221.962 23.5067 221.889 23.2661 221.813 23.0182C221.657 22.4304 221.657 22.4304 221.657 21.8242Z" fill="#FFA600"/>
<path d="M171.391 21.8242C177.75 21.8242 177.75 21.8242 179.169 23.1882C179.518 23.8371 179.851 24.4951 180.172 25.1585C180.559 25.8076 180.962 26.4454 181.367 27.0832C181.638 27.5103 181.905 27.9401 182.168 28.3726C182.349 28.6712 182.349 28.6712 182.534 28.9759C182.694 29.2417 182.694 29.2417 182.858 29.5128C183.226 30.0459 183.639 30.4733 184.109 30.9177C184.271 30.6745 184.433 30.4314 184.599 30.1809C184.947 29.6591 185.294 29.1373 185.642 28.6155C185.766 28.4298 185.889 28.2442 186.017 28.0529C186.144 27.8609 186.272 27.6689 186.404 27.471C186.598 27.1797 186.598 27.1797 186.796 26.8825C188.48 24.3533 188.48 24.3533 190.165 21.8242C192.263 21.8242 194.362 21.8242 196.524 21.8242C196.524 29.3263 196.524 36.8285 196.524 44.5579C194.226 44.5579 191.927 44.5579 189.559 44.5579C189.409 39.3064 189.409 39.3064 189.256 33.9489C188.663 34.7866 188.07 35.6243 187.459 36.4875C187.272 36.751 187.085 37.0145 186.892 37.286C186.745 37.4937 186.598 37.7014 186.447 37.9154C186.297 38.1281 186.146 38.3408 185.991 38.56C185.608 39.0976 185.608 39.0976 185.32 39.7081C184.345 39.9316 183.564 39.9767 182.595 39.7081C181.591 38.7201 180.906 37.569 180.172 36.3738C179.573 35.4735 178.973 34.5733 178.355 33.6457C178.355 37.2468 178.355 40.8478 178.355 44.5579C176.057 44.5579 173.759 44.5579 171.391 44.5579C171.391 37.0558 171.391 29.5537 171.391 21.8242Z" fill="#FFA600"/>
<path d="M162.912 52.1357C169.574 52.1357 169.574 52.1357 171.391 53.9165C171.821 54.5286 171.821 54.5286 172.122 55.0805C172.994 56.5757 174.059 57.8907 175.138 59.24C175.489 59.6871 175.838 60.1351 176.186 60.5839C176.335 60.7744 176.483 60.9648 176.636 61.1611C177.328 62.0797 177.99 63.0209 178.658 63.9573C178.658 60.0562 178.658 56.1551 178.658 52.1357C180.957 52.1357 183.255 52.1357 185.623 52.1357C185.623 59.6379 185.623 67.14 185.623 74.8695C183.424 74.8695 181.226 74.8695 178.961 74.8695C177.554 73.2594 176.212 71.6655 174.93 69.9628C173.255 67.7511 171.567 65.5509 169.877 63.351C169.877 67.1521 169.877 70.9532 169.877 74.8695C167.578 74.8695 165.28 74.8695 162.912 74.8695C162.912 67.3673 162.912 59.8652 162.912 52.1357Z" fill="#FFA600"/>
<path d="M279.191 23.9461C281.562 26.1376 282.901 28.8282 283.206 32.0438C283.329 35.1751 282.643 38.2728 280.589 40.7074C280.428 40.8778 280.266 41.0482 280.099 41.2237C279.944 41.3878 279.789 41.5519 279.629 41.721C277.081 44.1367 273.66 45.1441 270.216 45.1737C266.379 45.0182 263.022 44.016 260.19 41.3267C257.833 38.7373 256.918 35.661 256.992 32.1965C257.31 28.8774 258.54 26.2622 260.996 24.0242C266.131 19.9084 273.987 20.0678 279.191 23.9461ZM265.754 29.1938C264.452 30.8987 264.222 32.3334 264.493 34.4344C264.879 36.1547 265.967 37.2259 267.381 38.1925C268.645 38.8761 269.907 39.0072 271.318 38.7988C273.101 38.2191 274.209 37.3061 275.255 35.7676C276.052 34.1704 275.94 32.6236 275.557 30.9177C274.707 29.277 273.644 28.2324 271.943 27.5077C269.571 26.9262 267.421 27.3543 265.754 29.1938Z" fill="#FFA600"/>
<path d="M163.517 23.9461C165.888 26.1376 167.227 28.8282 167.532 32.0438C167.655 35.1751 166.969 38.2728 164.915 40.7074C164.754 40.8778 164.592 41.0482 164.426 41.2237C164.27 41.3878 164.115 41.5519 163.955 41.721C161.408 44.1367 157.986 45.1441 154.542 45.1737C150.705 45.0182 147.348 44.016 144.516 41.3267C142.159 38.7373 141.244 35.661 141.319 32.1965C141.637 28.8774 142.866 26.2622 145.323 24.0242C150.457 19.9084 158.314 20.0678 163.517 23.9461ZM150.08 29.1938C148.778 30.8987 148.548 32.3334 148.819 34.4344C149.205 36.1547 150.294 37.2259 151.708 38.1925C152.971 38.8761 154.234 39.0072 155.644 38.7988C157.427 38.2191 158.536 37.3061 159.581 35.7676C160.378 34.1704 160.267 32.6236 159.883 30.9177C159.034 29.277 157.97 28.2324 156.269 27.5077C153.897 26.9262 151.747 27.3543 150.08 29.1938Z" fill="#FFA600"/>
<path d="M115.674 52.1362C119.028 52.0987 119.028 52.0987 122.449 52.0604C123.499 52.0439 123.499 52.0439 124.569 52.027C125.133 52.0235 125.697 52.0204 126.26 52.0178C126.688 52.0085 126.688 52.0085 127.125 51.999C129.484 51.9978 131.563 52.4976 133.436 53.9893C135.073 55.944 135.834 57.6213 135.75 60.202C135.424 62.8019 134.271 64.3293 132.276 65.9588C132.094 66.0987 131.911 66.2386 131.723 66.3827C133.139 68.8971 134.591 71.3791 136.123 73.8244C136.568 74.5668 136.568 74.5668 136.568 74.8699C129.507 75.5903 129.507 75.5903 127.762 74.4628C126.826 73.4189 126.329 72.1947 125.874 70.8816C125.597 70.1356 125.19 69.5169 124.739 68.8645C124.153 67.8983 124.153 67.8983 124.153 67.292C123.553 67.292 122.953 67.292 122.336 67.292C122.336 69.7927 122.336 72.2935 122.336 74.8699C120.137 74.8699 117.939 74.8699 115.674 74.8699C115.674 67.3678 115.674 59.8657 115.674 52.1362ZM122.336 57.5923C122.336 59.1928 122.336 60.7932 122.336 62.4422C123.338 62.4703 123.338 62.4703 124.361 62.499C124.737 62.5096 125.113 62.5201 125.5 62.531C126.649 62.436 127.185 62.2323 128.089 61.5328C128.799 60.6583 128.799 60.6583 128.657 59.5626C128.486 58.5244 128.486 58.5244 127.926 57.9842C126.861 57.4242 125.852 57.4955 124.682 57.5355C123.521 57.5636 123.521 57.5636 122.336 57.5923Z" fill="#FFA600"/>
<path d="M287.064 21.8247C290.418 21.7872 290.418 21.7872 293.84 21.7489C294.889 21.7324 294.889 21.7324 295.96 21.7155C296.524 21.7119 297.087 21.7088 297.651 21.7063C298.079 21.697 298.079 21.697 298.515 21.6875C300.874 21.6863 302.953 22.1861 304.826 23.6777C306.463 25.6325 307.224 27.3098 307.141 29.8904C306.814 32.4904 305.662 34.0178 303.667 35.6473C303.484 35.7872 303.302 35.927 303.113 36.0712C304.529 38.5855 305.981 41.0676 307.514 43.5129C307.958 44.2553 307.958 44.2553 307.958 44.5584C300.898 45.2787 300.898 45.2787 299.152 44.1513C298.216 43.1074 297.72 41.8831 297.265 40.5701C296.988 39.8241 296.581 39.2053 296.13 38.5529C295.543 37.5867 295.543 37.5867 295.543 36.9805C294.944 36.9805 294.344 36.9805 293.726 36.9805C293.726 39.4812 293.726 41.9819 293.726 44.5584C291.528 44.5584 289.329 44.5584 287.064 44.5584C287.064 37.0563 287.064 29.5542 287.064 21.8247ZM293.726 27.2808C293.726 28.8812 293.726 30.4817 293.726 32.1307C294.729 32.1588 294.729 32.1588 295.751 32.1875C296.127 32.198 296.503 32.2086 296.89 32.2195C298.04 32.1245 298.576 31.9208 299.48 31.2213C300.19 30.3468 300.19 30.3468 300.047 29.2511C299.876 28.2129 299.876 28.2129 299.316 27.6727C298.252 27.1127 297.243 27.1839 296.073 27.224C294.911 27.2521 294.911 27.2521 293.726 27.2808Z" fill="#FFA600"/>
<path d="M308.564 21.8246C316.103 21.0009 316.103 21.0009 318.108 22.3303C319.267 23.5535 320.05 24.9626 320.716 26.5045C320.846 26.7387 320.846 26.7387 320.979 26.9776C321.179 26.9776 321.378 26.9776 321.584 26.9776C321.979 26.5582 321.979 26.5582 322.362 26.0043C322.509 25.8019 322.655 25.5995 322.807 25.3909C322.959 25.1768 323.112 24.9627 323.269 24.7421C323.422 24.5303 323.576 24.3185 323.734 24.1003C324.539 23.0014 324.539 23.0014 325.218 21.8246C328.016 21.8246 330.814 21.8246 333.697 21.8246C332.335 24.2109 332.335 24.2109 331.525 25.2962C331.35 25.5325 331.175 25.7688 330.994 26.0122C330.812 26.2557 330.629 26.4993 330.442 26.7502C330.064 27.2589 329.686 27.7677 329.308 28.2765C329.127 28.5207 328.945 28.765 328.758 29.0166C327.768 30.3495 326.796 31.6947 325.824 33.0399C326.312 34.1363 326.98 35.0131 327.716 35.9574C327.845 36.1236 327.974 36.2898 328.107 36.461C328.93 37.5219 329.76 38.5772 330.589 39.6327C330.781 39.8774 330.973 40.1222 331.171 40.3743C331.551 40.86 331.933 41.3448 332.316 41.8286C332.491 42.0519 332.666 42.2751 332.846 42.5052C333.003 42.7039 333.16 42.9026 333.321 43.1074C333.697 43.6489 333.697 43.6489 334 44.5583C326.509 45.4305 326.509 45.4305 324.426 44.0228C323.189 42.7221 322.324 41.2265 321.572 39.6031C321.476 39.4378 321.38 39.2725 321.282 39.1022C321.082 39.1022 320.882 39.1022 320.676 39.1022C320.357 39.6253 320.357 39.6253 320.054 40.2957C319.167 41.949 318.311 43.4768 316.739 44.5583C313.991 45.2575 311.047 44.8953 308.261 44.5583C309.574 42.4234 310.958 40.3995 312.519 38.4391C313.049 37.7673 313.579 37.0952 314.104 36.4199C314.453 35.9782 314.811 35.5432 315.177 35.1148C316.175 33.9954 316.175 33.9954 316.37 32.5947C315.567 31.4517 314.734 30.343 313.863 29.2509C313.48 28.7647 313.098 28.2785 312.715 27.7922C312.341 27.3186 311.966 26.8449 311.592 26.3713C310.996 25.6155 310.403 24.8575 309.813 24.098C309.448 23.6338 309.448 23.6338 309.077 23.1602C308.564 22.4308 308.564 22.4308 308.564 21.8246Z" fill="#FFA600"/>
<path d="M140.201 52.1357C146.097 52.1357 151.993 52.1357 158.067 52.1357C158.067 53.9363 158.067 55.7368 158.067 57.5918C154.47 57.5918 150.872 57.5918 147.166 57.5918C147.166 58.5921 147.166 59.5924 147.166 60.623C150.264 60.623 153.361 60.623 156.553 60.623C156.553 62.4235 156.553 64.224 156.553 66.0791C153.455 66.0791 150.357 66.0791 147.166 66.0791C147.166 67.1794 147.166 68.2797 147.166 69.4134C150.963 69.4134 154.76 69.4134 158.673 69.4134C158.673 71.2139 158.673 73.0144 158.673 74.8695C152.577 74.8695 146.481 74.8695 140.201 74.8695C140.201 67.3673 140.201 59.8652 140.201 52.1357Z" fill="#FFA600"/>
<path d="M201.975 21.8242C207.87 21.8242 213.766 21.8242 219.84 21.8242C219.84 23.6247 219.84 25.4252 219.84 27.2803C216.243 27.2803 212.646 27.2803 208.939 27.2803C208.939 28.2806 208.939 29.2809 208.939 30.3115C212.037 30.3115 215.135 30.3115 218.326 30.3115C218.326 32.112 218.326 33.9125 218.326 35.7676C215.229 35.7676 212.131 35.7676 208.939 35.7676C208.939 36.8679 208.939 37.9682 208.939 39.1018C212.736 39.1018 216.534 39.1018 220.446 39.1018C220.446 40.9023 220.446 42.7029 220.446 44.5579C214.35 44.5579 208.255 44.5579 201.975 44.5579C201.975 37.0558 201.975 29.5537 201.975 21.8242Z" fill="#FFA600"/>
<path d="M46.0268 23.3403C46.8957 24.2101 46.7242 25.0799 46.7252 26.2451C46.7277 26.4823 46.7303 26.7194 46.7329 26.9637C46.7402 27.7502 46.7428 28.5367 46.7448 29.3233C46.7475 29.8693 46.7503 30.4152 46.7531 30.9612C46.7581 32.1071 46.7604 33.253 46.7613 34.3989C46.7629 35.8668 46.7743 37.3344 46.7882 38.8021C46.7972 39.9305 46.7994 41.0587 46.7997 42.1871C46.8009 42.7281 46.8047 43.2692 46.811 43.8102C46.8192 44.5679 46.8177 45.325 46.8139 46.0827C46.8184 46.3058 46.8229 46.529 46.8276 46.759C46.8107 47.9411 46.6719 48.45 45.9211 49.3816C45.0285 50.0854 44.2849 50.4071 43.2034 50.7486C42.8421 50.8654 42.4808 50.9823 42.1086 51.1026C41.7341 51.2187 41.3596 51.3347 40.9737 51.4543C40.228 51.6924 39.4824 51.9308 38.7369 52.1695C38.4072 52.2725 38.0775 52.3756 37.7378 52.4818C36.96 52.7153 36.96 52.7153 36.3369 53.0457C35.2581 53.0836 35.2581 53.0836 34.2172 53.0457C33.6365 52.4643 33.8608 51.3868 33.856 50.5945C33.8535 50.3697 33.851 50.1449 33.8485 49.9133C33.8409 49.166 33.836 48.4187 33.8316 47.6713C33.83 47.4163 33.8284 47.1614 33.8267 46.8987C33.8186 45.5484 33.8127 44.198 33.8084 42.8477C33.8034 41.4536 33.7898 40.0597 33.7744 38.6657C33.7642 37.5936 33.7607 36.5215 33.759 35.4493C33.7569 34.9355 33.7523 34.4218 33.7451 33.9081C33.7355 33.1875 33.7355 32.4675 33.7377 31.7468C33.7303 31.43 33.7303 31.43 33.7227 31.1067C33.7442 29.4103 34.2796 28.7386 35.4285 27.5839C38.2481 25.4455 42.4015 23.0193 46.0268 23.3403Z" fill="#FFA600"/>
<path d="M220.128 52.1016C220.38 52.1031 220.632 52.1047 220.892 52.1064C221.164 52.1073 221.436 52.1083 221.717 52.1093C222.146 52.1131 222.146 52.1131 222.585 52.117C222.872 52.1184 223.16 52.1198 223.456 52.1212C224.168 52.1248 224.881 52.1298 225.594 52.136C225.811 52.6544 225.811 52.6544 226.032 53.1833C226.465 54.2206 226.899 55.2578 227.333 56.2951C227.828 57.4794 228.323 58.6637 228.818 59.8481C229.971 62.6054 231.124 65.3623 232.283 68.1171C232.467 68.5555 232.651 68.994 232.836 69.4325C233.176 70.2417 233.516 71.0506 233.857 71.8593C234.007 72.2158 234.157 72.5724 234.311 72.9397C234.442 73.2488 234.572 73.5579 234.706 73.8764C234.981 74.5666 234.981 74.5666 234.981 74.8697C232.583 74.8697 230.184 74.8697 227.713 74.8697C226.502 72.1416 226.502 72.1416 226.502 71.2323C222.455 71.3823 222.455 71.3823 218.326 71.5354C217.927 72.6357 217.527 73.736 217.115 74.8697C214.717 74.8697 212.319 74.8697 209.848 74.8697C211.319 70.7468 213.058 66.7522 214.81 62.7439C215.432 61.3197 216.045 59.8921 216.654 58.4623C216.738 58.265 216.822 58.0677 216.909 57.8644C217.312 56.9172 217.714 55.9697 218.116 55.0218C218.259 54.6864 218.402 54.3511 218.549 54.0056C218.674 53.7095 218.8 53.4134 218.929 53.1083C219.369 52.1458 219.369 52.1458 220.128 52.1016ZM222.263 60.9263C221.958 61.6644 221.656 62.4033 221.354 63.1429C221.268 63.3521 221.181 63.5614 221.092 63.7769C220.722 64.6897 220.446 65.3879 220.446 66.3824C221.745 66.3824 223.044 66.3824 224.383 66.3824C223.783 64.5819 223.183 62.7814 222.566 60.9263C222.466 60.9263 222.366 60.9263 222.263 60.9263Z" fill="#FFA600"/>
<path d="M189.257 52.1357C196.552 52.1357 203.846 52.1357 211.362 52.1357C211.362 54.0363 211.362 55.9368 211.362 57.8949C208.864 57.8949 206.366 57.8949 203.792 57.8949C203.792 63.4965 203.792 69.0981 203.792 74.8695C201.393 74.8695 198.995 74.8695 196.524 74.8695C196.524 69.2679 196.524 63.6663 196.524 57.8949C194.126 57.8949 191.728 57.8949 189.257 57.8949C189.257 55.9944 189.257 54.0939 189.257 52.1357Z" fill="#FFA600"/>
<path d="M236.798 52.1357C239.196 52.1357 241.594 52.1357 244.065 52.1357C244.065 57.7373 244.065 63.3389 244.065 69.1102C247.463 69.1102 250.86 69.1102 254.361 69.1102C254.361 71.0108 254.361 72.9113 254.361 74.8695C248.565 74.8695 242.769 74.8695 236.798 74.8695C236.798 67.3673 236.798 59.8652 236.798 52.1357Z" fill="#FFA600"/>
</g>
<defs>
<clipPath id="clip0_1412_21055">
<rect width="334" height="107" fill="white"/>
</clipPath>
</defs>
</svg>
