<svg xmlns="http://www.w3.org/2000/svg" viewBox="-42.857 -38.0481 83.86 81.21">
	<path d="m41 41v2.166h-83.857v-2.073c0-6.915 4.39-13.067 10.928-15.316 0 0 12.885-4.346 17.144-5.898 2.747-1.001 5.003-2.867 5.402-5.591-.804-.691-1.512-1.482-2.093-2.365l-3.101-4.718c-1.74-2.646-2.783-5.601-3.087-8.646-.79-.192-1.217-.668-1.676-1.397-.042-.067-.079-.139-.11-.212l-1.875-4.399c-.491-1.432.197-2.974 1.659-3.721l.187-.096c.569-.291 1.207-.261 1.712-.017v-.196c-.272-1.697-2.014-13.49 1.465-16.969 0 0-.69-.428-1.829.94 0 0 1.208-4.144 4.984-3.801 0 0 .973-7.381 8.697-6.694 0 0-1.43 1.202-1.144 2.861 0 0 7.495-3.204 16.021.572 0 0-1.831-.4-3.49.515 0 0 9.298.916 11.587 7.868 0 0-1.431-.286-1.917.2 0 0 .932 1.047.703 5.853-.139 2.928-.306 6.399-.415 8.667.245.018.492.082.728.202l.187.096c1.462.747 2.15 2.289 1.659 3.721l-1.875 4.399c-.031.073-.068.145-.11.212-.457.726-.882 1.2-1.664 1.394-.282 3.017-1.292 5.949-2.986 8.584l-3.016 4.691c-.429.668-.932 1.285-1.493 1.847.103 3.078 2.535 5.109 5.442 6.253 4.533 1.784 16.425 5.794 16.425 5.794 6.477 2.284 10.809 8.406 10.809 15.274z" fill="#FFA500"/>
</svg>