<svg width="100" height="100" viewBox="0 0 100 100" fill="none" xmlns="http://www.w3.org/2000/svg">
<path d="M15.6252 14.5834C15.0499 14.5834 14.5835 15.0497 14.5835 15.625V67.7084C14.5835 68.2838 15.0499 68.75 15.6252 68.75H37.5002V75H15.6252C11.5981 75 8.3335 71.7355 8.3335 67.7084V15.625C8.3335 11.598 11.5981 8.33337 15.6252 8.33337H38.5418C42.5689 8.33337 45.8335 11.598 45.8335 15.625V28.125C45.8335 28.7003 46.2997 29.1667 46.8752 29.1667H51.0418C55.0689 29.1667 58.3335 32.4313 58.3335 36.4584V36.7575L52.0835 42.5909V36.4584C52.0835 35.8831 51.6172 35.4167 51.0418 35.4167H46.8752C42.8481 35.4167 39.5835 32.1521 39.5835 28.125V15.625C39.5835 15.0497 39.1171 14.5834 38.5418 14.5834H15.6252ZM25.0002 23.9584C25.0002 25.6842 23.601 27.0834 21.8752 27.0834C20.1493 27.0834 18.7502 25.6842 18.7502 23.9584C18.7502 22.2325 20.1493 20.8334 21.8752 20.8334C23.601 20.8334 25.0002 22.2325 25.0002 23.9584ZM21.8752 39.5834C23.601 39.5834 25.0002 38.1843 25.0002 36.4584C25.0002 34.7325 23.601 33.3334 21.8752 33.3334C20.1493 33.3334 18.7502 34.7325 18.7502 36.4584C18.7502 38.1843 20.1493 39.5834 21.8752 39.5834ZM25.0002 48.9584C25.0002 50.6842 23.601 52.0834 21.8752 52.0834C20.1493 52.0834 18.7502 50.6842 18.7502 48.9584C18.7502 47.2325 20.1493 45.8334 21.8752 45.8334C23.601 45.8334 25.0002 47.2325 25.0002 48.9584ZM32.2918 27.0834C34.0177 27.0834 35.4168 25.6842 35.4168 23.9584C35.4168 22.2325 34.0177 20.8334 32.2918 20.8334C30.566 20.8334 29.1668 22.2325 29.1668 23.9584C29.1668 25.6842 30.566 27.0834 32.2918 27.0834ZM35.4168 36.4584C35.4168 38.1843 34.0177 39.5834 32.2918 39.5834C30.566 39.5834 29.1668 38.1843 29.1668 36.4584C29.1668 34.7325 30.566 33.3334 32.2918 33.3334C34.0177 33.3334 35.4168 34.7325 35.4168 36.4584ZM32.2918 52.0834C34.0177 52.0834 35.4168 50.6842 35.4168 48.9584C35.4168 47.2325 34.0177 45.8334 32.2918 45.8334C30.566 45.8334 29.1668 47.2325 29.1668 48.9584C29.1668 50.6842 30.566 52.0834 32.2918 52.0834ZM71.6423 39.3273C68.8406 36.7126 64.4931 36.7126 61.6914 39.3273L43.9831 55.855C42.5056 57.2342 41.6668 59.1646 41.6668 61.1859V85.4167C41.6668 88.8684 44.4652 91.6667 47.9168 91.6667H56.2502C59.7018 91.6667 62.5002 88.8684 62.5002 85.4167V75.0017H70.8335V85.4167C70.8335 88.8684 73.6318 91.6667 77.0835 91.6667H85.4168C88.8685 91.6667 91.6668 88.8684 91.6668 85.4167V61.1859C91.6668 59.1646 90.8281 57.2342 89.3506 55.855L71.6423 39.3273ZM65.956 43.8963C66.3564 43.523 66.9773 43.523 67.3777 43.8963L85.086 60.4242C85.2968 60.6213 85.4168 60.8971 85.4168 61.1859V85.4167H77.0835V75.0017C77.0835 71.55 74.2852 68.7517 70.8335 68.7517H62.5002C59.0485 68.7517 56.2502 71.55 56.2502 75.0017V85.4167H47.9168V61.1859C47.9168 60.8971 48.0368 60.6213 48.2477 60.4242L65.956 43.8963Z" fill="#FFA500" fill-opacity="0.4"/>
</svg>
