<svg width="90" height="158" viewBox="0 0 90 158" fill="none" xmlns="http://www.w3.org/2000/svg">
<path d="M3.10335 -18.4624C-3.74062 -30.9657 2.79976 -39.8944 6.92548 -42.7958L20.1123 -30.4115L170.266 87.7964L146.514 154.023C142.694 157.355 132.693 161.404 123.249 150.941C111.443 137.862 106.03 142.713 99.8658 144.128C93.7018 145.542 86.6206 145.663 81.5646 130.509C76.5086 115.355 69.1981 102.373 54.0184 99.9918C41.8746 98.0872 36.0463 91.5933 34.1921 88.9789C32.338 86.3646 28.0808 78.6381 29.8059 65.8524C31.9623 49.8704 22.2139 38.8004 9.84425 29.3844C-2.52542 19.9684 -0.396759 12.864 2.64901 7.05284C5.69479 1.24166 11.6583 -2.83324 3.10335 -18.4624Z" fill="#FFA500"/>
</svg>
