<svg width="127" height="73" viewBox="0 0 127 73" fill="none" xmlns="http://www.w3.org/2000/svg">
<path d="M114.376 73.5162C127.488 79.1071 127.872 90.1682 126.425 95L108.403 93.4262L-82.6976 93.4262L-105 26.6975C-104.06 21.7161 -98.7063 12.3483 -84.8133 14.7276C-67.4472 17.7017 -66.1944 10.5417 -62.226 5.61751C-58.2576 0.693261 -52.7687 -3.78223 -39.4223 4.99734C-26.0759 13.7769 -12.3012 19.4559 1.09874 11.9369C11.8187 5.92173 20.4151 7.41906 23.4891 8.32632C26.5631 9.23358 34.6875 12.6712 41.2407 23.7844C49.4323 37.6759 63.9394 40.344 79.4831 40.091C95.0268 39.8381 97.7487 46.7369 98.9502 53.187C100.152 59.637 97.9864 66.5276 114.376 73.5162Z" fill="#0F1935"/>
</svg>
